<?xml version="1.0" encoding="UTF-8"?>
<svg version="1.1" xmlns="http://www.w3.org/2000/svg" width="1280" height="1280">
<path d="M0 0 C2.10353495 -0.0810206 4.20795952 -0.13919907 6.3125 -0.1875 C7.48425781 -0.22230469 8.65601563 -0.25710938 9.86328125 -0.29296875 C13 0 13 0 14.59542847 1.23983765 C16.2213248 3.27735688 16.85549609 4.96318298 17.60986328 7.45556641 C17.88669952 8.35304596 18.16353577 9.25052551 18.44876099 10.17520142 C18.73637299 11.14090057 19.02398499 12.10659973 19.3203125 13.1015625 C19.62444061 14.09376801 19.92856873 15.08597351 20.24191284 16.10824585 C21.21188353 19.27785181 22.16900483 22.45115367 23.125 25.625 C24.09030408 28.80527652 25.05826131 31.98471159 26.0295105 35.16317749 C26.63334463 37.14181129 27.23330983 39.12163052 27.82913208 41.10269165 C28.099664 41.99386688 28.37019592 42.88504211 28.64892578 43.80322266 C28.88636505 44.5913736 29.12380432 45.37952454 29.36843872 46.19155884 C29.85196196 47.9967733 29.85196196 47.9967733 31 49 C31.37286133 47.93676514 31.74572266 46.87353027 32.12988281 45.77807617 C33.53078014 41.78387618 34.93250908 37.78996843 36.33447266 33.79614258 C36.93788505 32.07681953 37.54108034 30.35742028 38.14404297 28.63793945 C39.84269089 23.79411673 41.54729134 18.95246034 43.25756836 14.11273193 C43.92791961 12.20511859 44.58673118 10.29345965 45.24414062 8.38134766 C45.59154297 7.38538574 45.93894531 6.38942383 46.296875 5.36328125 C46.58401367 4.52708252 46.87115234 3.69088379 47.16699219 2.8293457 C48 1 48 1 50 0 C51.70702735 -0.06996014 53.41668003 -0.08440154 55.125 -0.0625 C56.41639893 -0.0459436 56.41639893 -0.0459436 57.73388672 -0.02905273 C58.4817041 -0.01946533 59.22952148 -0.00987793 60 0 C63.63397536 8.67173371 66.7392624 17.53088975 69.85595703 26.39770508 C70.75709946 28.95766811 71.66555301 31.51496481 72.57421875 34.07226562 C73.1488843 35.70296761 73.72311894 37.33382154 74.296875 38.96484375 C74.56868591 39.72731918 74.84049683 40.48979462 75.12054443 41.27537537 C76.17930539 44.30693103 77 46.76416034 77 50 C77.66 50 78.32 50 79 50 C79.10578369 49.04786621 79.21156738 48.09573242 79.32055664 47.11474609 C80.0103013 42.31697334 81.43730423 37.78411268 82.87109375 33.1640625 C83.15348404 32.24410492 83.43587433 31.32414734 83.7268219 30.37631226 C84.32177661 28.44421563 84.91947639 26.51296238 85.51977539 24.58251953 C86.4401428 21.61648315 87.34645978 18.64638758 88.25195312 15.67578125 C88.83248925 13.79661403 89.41384058 11.91769841 89.99609375 10.0390625 C90.26699326 9.14748444 90.53789276 8.25590637 90.81700134 7.33731079 C91.07389236 6.51910858 91.33078339 5.70090637 91.59545898 4.85791016 C91.81894516 4.13511871 92.04243134 3.41232727 92.27268982 2.66763306 C93 1 93 1 95 0 C97.2072923 -0.07092842 99.41667452 -0.08415025 101.625 -0.0625 C102.81351563 -0.05347656 104.00203125 -0.04445313 105.2265625 -0.03515625 C106.14179687 -0.02355469 107.05703125 -0.01195312 108 0 C109.23335592 3.51978818 108.7583607 5.56348391 107.55639648 9.04956055 C107.21531357 10.05548752 106.87423065 11.06141449 106.52281189 12.0978241 C106.1427449 13.18315933 105.76267792 14.26849457 105.37109375 15.38671875 C104.98438004 16.51713089 104.59766632 17.64754303 104.19923401 18.81221008 C102.95518092 22.44078276 101.69648897 26.06408594 100.4375 29.6875 C99.61558583 32.07844946 98.79461187 34.46972236 97.97460938 36.86132812 C93.71461133 49.26365487 89.39275477 61.64407863 85 74 C80.71 74 76.42 74 72 74 C71.3709375 72.29457031 70.741875 70.58914063 70.09375 68.83203125 C69.22922188 66.4921671 68.36463532 64.15232454 67.5 61.8125 C67.09007812 60.70068359 66.68015625 59.58886719 66.2578125 58.44335938 C62.2483922 47.59969992 58.12831044 36.79884939 54 26 C53.78924332 26.58659897 53.57848663 27.17319794 53.36134338 27.77757263 C51.17486 33.86148096 48.98446321 39.94396974 46.79174805 46.02563477 C45.9730259 48.29805622 45.15531548 50.57084244 44.33862305 52.84399414 C43.16718643 56.10398361 41.99216366 59.36266055 40.81640625 62.62109375 C40.44971329 63.64400009 40.08302032 64.66690643 39.70521545 65.72080994 C39.3649382 66.66170975 39.02466095 67.60260956 38.67407227 68.57202148 C38.3742897 69.40475082 38.07450714 70.23748016 37.76564026 71.09544373 C37 73 37 73 36 74 C33.98035801 74.07244053 31.95832876 74.08377188 29.9375 74.0625 C28.83277344 74.05347656 27.72804688 74.04445313 26.58984375 74.03515625 C25.73519531 74.02355469 24.88054688 74.01195312 24 74 C20.49548185 66.68325574 17.94456035 59.14349153 15.4375 51.4375 C14.5680387 48.78288468 13.69494745 46.12947738 12.8203125 43.4765625 C12.59513443 42.79276016 12.36995636 42.10895782 12.13795471 41.4044342 C10.43546647 36.25790393 8.66486774 31.13741232 6.8671875 26.0234375 C6.61085037 25.29127518 6.35451324 24.55911285 6.09040833 23.80476379 C4.58147992 19.49458765 4.58147992 19.49458765 3.05490112 15.19064331 C2.34769925 13.20921013 1.65141886 11.22423429 0.95703125 9.23828125 C0.55460205 8.10430908 0.15217285 6.97033691 -0.26245117 5.80200195 C-1 3 -1 3 0 0 Z " fill="#FEFEFE" transform="translate(522,739)"/>
<path d="M0 0 C2.10241603 -0.13496251 4.2072961 -0.23197307 6.3125 -0.3125 C7.48425781 -0.37050781 8.65601563 -0.42851563 9.86328125 -0.48828125 C13 0 13 0 14.48632812 1.8984375 C16.57264049 6.17335885 17.94716632 10.57647477 19.35546875 15.11328125 C19.66196854 16.08283249 19.96846832 17.05238373 20.28425598 18.05131531 C21.2580467 21.13651174 22.22288212 24.22442477 23.1875 27.3125 C23.84771777 29.40969089 24.5085185 31.50669835 25.16992188 33.60351562 C26.78670878 38.73357092 28.3961599 43.8658833 30 49 C32.043182 45.05246721 33.48605923 40.95580355 34.93359375 36.76171875 C35.21219742 35.96272659 35.49080109 35.16373444 35.77784729 34.3405304 C36.66694842 31.79039934 37.55261567 29.23909708 38.4375 26.6875 C39.59999035 23.33623094 40.76584835 19.98615977 41.93359375 16.63671875 C42.3274955 15.49573982 42.3274955 15.49573982 42.72935486 14.33171082 C47.04434953 1.95565047 47.04434953 1.95565047 49 0 C52.66655195 -0.14300125 56.33144219 -0.04216733 60 0 C64.58624824 10.36526182 68.18950897 21.02056578 71.8125 31.75 C72.41563871 33.5261697 73.01915164 35.30221237 73.62304688 37.078125 C75.08634443 41.38396611 76.54458551 45.69148828 78 50 C79.35695017 45.95926276 80.71026821 41.91731858 82.0625 37.875 C82.46863525 36.66279785 82.87477051 35.4505957 83.29321289 34.20166016 C85.27487611 28.26404883 87.22869889 22.32156756 89.0859375 16.34375 C89.40038818 15.33328613 89.71483887 14.32282227 90.03881836 13.28173828 C90.62965518 11.37070779 91.21399995 9.45765586 91.79125977 7.54248047 C92.18655884 6.2646167 92.18655884 6.2646167 92.58984375 4.9609375 C92.81534912 4.21634277 93.04085449 3.47174805 93.27319336 2.70458984 C94 1 94 1 96 0 C98.2072923 -0.07092842 100.41667452 -0.08415025 102.625 -0.0625 C103.81351562 -0.05347656 105.00203125 -0.04445313 106.2265625 -0.03515625 C107.14179688 -0.02355469 108.05703125 -0.01195312 109 0 C110.34072619 2.68145238 109.49733862 4.08739273 108.59020996 6.8213501 C108.36063599 7.487453 108.13106201 8.15355591 107.89453125 8.83984375 C107.65907593 9.54195984 107.42362061 10.24407593 107.18103027 10.96746826 C106.39885627 13.29335997 105.6058763 15.61540788 104.8125 17.9375 C104.26858207 19.54579652 103.72521288 21.15427872 103.18237305 22.76293945 C101.75510921 26.98536279 100.31794073 31.20435014 98.87841797 35.42260742 C97.7176816 38.82835891 96.56339297 42.23628138 95.40888977 45.64414978 C94.31082508 48.88295462 93.20929301 52.12056953 92.10629272 55.35769653 C91.57703257 56.91108965 91.04840714 58.46469917 90.52041626 60.01852417 C89.7836424 62.1839989 89.04287433 64.34806204 88.30078125 66.51171875 C87.87966064 67.74365967 87.45854004 68.97560059 87.0246582 70.24487305 C86 73 86 73 85 74 C82.81360547 74.07258946 80.62499611 74.08373783 78.4375 74.0625 C76.64119141 74.04896484 76.64119141 74.04896484 74.80859375 74.03515625 C73.41833984 74.01775391 73.41833984 74.01775391 72 74 C65.69260814 58.1131222 59.84743999 42.060206 54 26 C53.63237549 27.02770508 53.26475098 28.05541016 52.88598633 29.11425781 C51.50060145 32.98452305 50.111104 36.85330173 48.72045898 40.72167969 C48.12300948 42.38534924 47.52662585 44.04940202 46.93139648 45.71386719 C43.5184628 55.2551553 40.00114207 64.68660715 36 74 C32.04 74 28.08 74 24 74 C21.03027984 67.55692532 18.54144476 61.09008618 16.28515625 54.3671875 C15.94753769 53.37228302 15.60991913 52.37737854 15.2620697 51.35232544 C14.19157563 48.19454487 13.12697774 45.03481304 12.0625 41.875 C11.35259436 39.77851684 10.64231092 37.68216158 9.93164062 35.5859375 C8.56568074 31.55508398 7.20640268 27.52207205 5.85205078 23.48730469 C4.70500979 20.07389158 3.53972925 16.66827349 2.34716797 13.27050781 C2.1050206 12.57192657 1.86287323 11.87334534 1.61338806 11.15359497 C0.98566284 9.34530784 0.34953174 7.53994457 -0.28735352 5.73486328 C-1 3 -1 3 0 0 Z " fill="#7B9E6C" transform="translate(367,739)"/>
<path d="M0 0 C3.07172367 1.45964969 4.89008701 2.7414354 7.0625 5.375 C10.05083248 8.90492792 13.11597714 12.34935706 16.25 15.75 C16.95733276 16.51884521 16.95733276 16.51884521 17.67895508 17.30322266 C18.64512118 18.35339611 19.61151219 19.4033627 20.578125 20.453125 C22.80848578 22.87956145 25.02776442 25.31612294 27.25 27.75 C32.83848273 33.85617825 38.50501103 39.88852949 44.171875 45.921875 C47.80964287 49.79504949 51.43797619 53.67693297 55.0625 57.5625 C55.63589111 58.17714111 56.20928223 58.79178223 56.80004883 59.42504883 C57.95545336 60.66369061 59.11080829 61.90237865 60.26611328 63.14111328 C63.17663651 66.26146303 66.08838287 69.38067102 69 72.5 C70.16667246 73.74999459 71.33333913 74.99999459 72.5 76.25 C73.0775 76.86875 73.655 77.4875 74.25 78.125 C76 80 77.75 81.875 79.5 83.75 C80.0779834 84.3692334 80.6559668 84.9884668 81.25146484 85.62646484 C82.413388 86.87145204 83.57517277 88.1165684 84.73681641 89.36181641 C88.33816615 93.22192156 91.94432787 97.07744223 95.5559082 100.92797852 C96.76186053 102.2187408 97.96358261 103.51346931 99.16088867 104.81225586 C101.49691167 107.34612876 103.81046046 109.82438323 106.33984375 112.16796875 C114.3664331 119.87667337 121.58427487 135.88730519 122.09765625 147.140625 C122.06510417 149.09375 122.03255208 151.046875 122 153 C118.7760483 151.58460657 116.64333208 149.88585072 114.1875 147.375 C113.56230469 146.74335937 112.93710937 146.11171875 112.29296875 145.4609375 C110.38111049 143.40902829 108.53073221 141.32716787 106.69140625 139.2109375 C103.13972039 135.13059996 99.46601025 131.18044232 95.75 127.25 C91.32262037 122.54866097 86.91343776 117.83470859 82.5625 113.0625 C76.13078286 106.02096079 69.57671934 99.09568457 63.03320312 92.15820312 C59.2318256 88.1231194 55.44384202 84.07548846 51.65429688 80.02929688 C48.40504337 76.56137647 45.15139792 73.09771915 41.890625 69.640625 C35.1889946 62.53512987 28.52071211 55.40684757 21.9375 48.19140625 C18.16159682 44.07260588 14.32942137 40.00647409 10.5 35.9375 C9.80455078 35.19822266 9.10910156 34.45894531 8.39257812 33.69726562 C5.00603518 29.99915489 5.00603518 29.99915489 1.30541992 26.63574219 C-0.6304032 24.21008015 -0.33961866 22.30162559 -0.29296875 19.23828125 C-0.28330078 18.12001953 -0.27363281 17.00175781 -0.26367188 15.84960938 C-0.23853516 14.68236328 -0.21339844 13.51511719 -0.1875 12.3125 C-0.17396484 11.13365234 -0.16042969 9.95480469 -0.14648438 8.74023438 C-0.11109326 5.82636589 -0.06171809 2.91341055 0 0 Z " fill="#7E9F70" transform="translate(515,399)"/>
<path d="M0 0 C1.24652344 -0.02578125 2.49304688 -0.0515625 3.77734375 -0.078125 C7.41717236 0.28542506 7.8510471 0.56009969 10.0625 3.25 C11.00808716 4.98127747 11.00808716 4.98127747 11.82080078 6.91333008 C12.13215469 7.64360916 12.44350861 8.37388824 12.76429749 9.126297 C13.09215744 9.9160643 13.4200174 10.7058316 13.7578125 11.51953125 C14.281688 12.75741646 14.281688 12.75741646 14.81614685 14.02030945 C15.94712332 16.69807431 17.06748863 19.38013263 18.1875 22.0625 C18.95642679 23.88954315 19.72587703 25.71636608 20.49584961 27.54296875 C25.77068327 40.07644911 30.98477522 52.63525355 36.0625 65.25 C37.8067314 62.63365291 38.83918323 60.50401897 39.9543457 57.60180664 C40.31845047 56.65974869 40.68255524 55.71769073 41.05769348 54.74708557 C41.44728745 53.7283989 41.83688141 52.70971222 42.23828125 51.66015625 C42.64531784 50.60525497 43.05235443 49.5503537 43.47172546 48.46348572 C44.77626296 45.08113947 46.07591774 41.69694483 47.375 38.3125 C48.66405951 34.96046203 49.95419874 31.60884786 51.24613953 28.25791931 C52.04941764 26.1737972 52.85097782 24.08901178 53.65046692 22.00343323 C54.77558146 19.08064083 55.91397589 16.16367128 57.0625 13.25 C57.7192421 11.58310623 57.7192421 11.58310623 58.38925171 9.88253784 C58.82951691 8.79135651 59.2697821 7.70017517 59.72338867 6.57592773 C60.12297287 5.58012192 60.52255707 4.5843161 60.93424988 3.55833435 C62.0625 1.25 62.0625 1.25 64.0625 0.25 C66.43652501 0.17883618 68.81250677 0.16590915 71.1875 0.1875 C72.46882812 0.19652344 73.75015625 0.20554687 75.0703125 0.21484375 C76.55144531 0.23224609 76.55144531 0.23224609 78.0625 0.25 C79.63731038 4.21617517 78.40383523 6.6715974 76.84033203 10.50537109 C76.59158829 11.12410599 76.34284454 11.74284088 76.08656311 12.38032532 C75.25842559 14.43251162 74.41447679 16.47779743 73.5703125 18.5234375 C72.98412627 19.96677929 72.398928 21.41052268 71.81466675 22.85464478 C70.26622481 26.67418333 68.70431788 30.4880751 67.1395874 34.30096436 C65.5849616 38.09579008 64.04300011 41.89574858 62.5 45.6953125 C59.29732385 53.57526411 56.07781531 61.44825459 52.85322571 69.31925964 C51.62452357 72.31942112 50.3977267 75.32036092 49.17089844 78.32128906 C47.13616825 83.2981012 45.09994871 88.27430021 43.0625 93.25 C41.62609829 93.44573608 40.18830496 93.63127816 38.75 93.8125 C37.54923828 93.96912109 37.54923828 93.96912109 36.32421875 94.12890625 C34.0625 94.25 34.0625 94.25 31.0625 93.25 C29.63061523 90.7578125 29.63061523 90.7578125 28.12109375 87.375 C27.84125137 86.75527817 27.561409 86.13555634 27.27308655 85.49705505 C26.33827693 83.41921293 25.41912348 81.33482312 24.5 79.25 C23.84452358 77.78358952 23.18825697 76.31753202 22.53125 74.85180664 C20.35831626 69.99187099 18.20959044 65.12139547 16.0625 60.25 C15.27886185 58.47507414 14.49516961 56.70017217 13.71142578 54.92529297 C9.49358173 45.36746128 5.28901353 35.80382209 1.11244202 26.22787476 C-0.58763232 22.33028634 -2.29587463 18.43676239 -4.0234375 14.55126953 C-4.35162476 13.81022476 -4.67981201 13.06917999 -5.01794434 12.30567932 C-5.63612211 10.91074161 -6.25714421 9.51705972 -6.88146973 8.12486267 C-8.9375 3.47437786 -8.9375 3.47437786 -8.9375 1.25 C-5.98361864 -0.22694068 -3.28588118 0.04069203 0 0 Z " fill="#7FA072" transform="translate(697.9375,506.75)"/>
<path d="M0 0 C0.74576294 0.00404846 1.49152588 0.00809692 2.2598877 0.01226807 C3.03239868 0.01035461 3.80490967 0.00844116 4.60083008 0.00646973 C6.24174321 0.00510664 7.88266707 0.00881171 9.52355957 0.01715088 C12.00363334 0.02773304 14.48296331 0.01732095 16.9630127 0.00445557 C39.02324466 -0.01615692 39.02324466 -0.01615692 46.5411377 6.27789307 C52.35901806 12.16059661 54.42181612 18.12425238 54.5411377 26.27789307 C53.79719242 33.44574674 51.39515039 38.57024 46.1036377 43.59039307 C43.45310366 45.3358667 41.62358292 45.75814855 38.5411377 46.27789307 C42.11813382 53.43188531 46.63493643 59.57411018 51.52648926 65.86773682 C52.04308105 66.53804932 52.55967285 67.20836182 53.09191895 67.89898682 C53.56282959 68.50154297 54.03374023 69.10409912 54.5189209 69.72491455 C55.5411377 71.27789307 55.5411377 71.27789307 55.5411377 73.27789307 C52.99851829 73.63724189 50.4681156 73.9405303 47.9161377 74.21539307 C47.20328613 74.32174072 46.49043457 74.42808838 45.75598145 74.53765869 C42.60644806 74.84105411 40.46837775 74.98462176 37.88317871 73.01422119 C36.27389931 71.18341414 34.90370169 69.29880903 33.5411377 67.27789307 C33.0535498 66.59750977 32.56596191 65.91712646 32.06359863 65.21612549 C30.58601433 63.13214644 29.15242248 61.02392225 27.7286377 58.90289307 C26.76463453 57.47784491 25.79983385 56.05333581 24.83410645 54.62945557 C24.41669189 54.00893311 23.99927734 53.38841064 23.56921387 52.74908447 C22.61764674 51.29621031 22.61764674 51.29621031 21.5411377 50.27789307 C19.35474316 50.20530361 17.16613381 50.19415524 14.9786377 50.21539307 C13.78109863 50.2244165 12.58355957 50.23343994 11.34973145 50.24273682 C9.95947754 50.26013916 9.95947754 50.26013916 8.5411377 50.27789307 C8.51608154 50.96939453 8.49102539 51.660896 8.46520996 52.37335205 C8.34961608 55.48757173 8.22672528 58.60146096 8.1036377 61.71539307 C8.06432129 62.80400635 8.02500488 63.89261963 7.98449707 65.01422119 C7.94260254 66.04869385 7.90070801 67.0831665 7.85754395 68.14898682 C7.80255737 69.58649292 7.80255737 69.58649292 7.74645996 71.05303955 C7.5411377 73.27789307 7.5411377 73.27789307 6.5411377 74.27789307 C4.35474316 74.35048253 2.16613381 74.36163089 -0.0213623 74.34039307 C-1.21890137 74.33136963 -2.41644043 74.32234619 -3.65026855 74.31304932 C-5.04052246 74.29564697 -5.04052246 74.29564697 -6.4588623 74.27789307 C-7.02958449 55.9449606 -7.56135451 37.6093381 -7.6361084 19.26660156 C-7.64293772 17.77557446 -7.65318505 16.28455904 -7.66687012 14.7935791 C-7.68455223 12.72052603 -7.68902567 10.64788702 -7.68933105 8.57476807 C-7.69343994 7.40268799 -7.69754883 6.23060791 -7.70178223 5.02301025 C-7.2438779 -0.15153873 -4.57055418 0.04186175 0 0 Z M7.5411377 14.27789307 C7.5411377 21.53789307 7.5411377 28.79789307 7.5411377 36.27789307 C11.41688877 36.38605356 15.28960729 36.46529627 19.1661377 36.52789307 C20.26055176 36.56140869 21.35496582 36.59492432 22.48254395 36.62945557 C28.77170012 36.70568776 32.88279425 36.73267864 37.5411377 32.27789307 C39.07325486 29.70669299 39.46328721 27.25845432 39.5411377 24.27789307 C38.43598082 20.31233016 37.6081433 18.07063436 34.27868652 15.59698486 C31.18147014 14.10458674 29.22179262 13.93007507 25.80285645 13.98492432 C24.73615723 13.99459229 23.66945801 14.00426025 22.57043457 14.01422119 C21.4676416 14.03935791 20.36484863 14.06449463 19.2286377 14.09039307 C18.10650879 14.10392822 16.98437988 14.11746338 15.82824707 14.13140869 C13.06567086 14.16667562 10.30334239 14.22048004 7.5411377 14.27789307 Z " fill="#FEFEFE" transform="translate(745.4588623046875,738.7221069335938)"/>
<path d="M0 0 C5.6716572 0.55697711 8.14512697 2.58009844 11.66870117 6.76196289 C13.90739534 9.63971397 16.07393058 12.55966134 18.18847656 15.52978516 C20.27221565 18.44226868 22.47923978 21.24321632 24.6875 24.0625 C25.86933021 25.61182053 27.05093796 27.16131184 28.23086548 28.71208191 C30.98141308 32.32422497 33.74161431 35.92899747 36.5 39.53515625 C37.3962207 40.70697449 37.3962207 40.70697449 38.31054688 41.90246582 C39.76947785 43.81001807 41.22846334 45.71752859 42.6875 47.625 C42.68305878 47.0656778 42.67861755 46.50635559 42.67404175 45.93008423 C42.62988851 40.12301176 42.59966706 34.31598675 42.57763672 28.50878906 C42.56756211 26.33982406 42.55390202 24.17087269 42.53662109 22.00195312 C42.51243677 18.88928874 42.50103168 15.77680349 42.4921875 12.6640625 C42.48186493 11.690065 42.47154236 10.7160675 42.46090698 9.71255493 C42.46068039 8.36138077 42.46068039 8.36138077 42.46044922 6.98291016 C42.456008 6.18793121 42.45156677 5.39295227 42.44699097 4.57388306 C42.6875 2.625 42.6875 2.625 44.6875 0.625 C47.47265625 0.39453125 47.47265625 0.39453125 50.75 0.4375 C52.37615234 0.44716797 52.37615234 0.44716797 54.03515625 0.45703125 C56.6875 0.625 56.6875 0.625 57.6875 1.625 C57.7871392 3.85887206 57.81549795 6.09593859 57.81689453 8.33203125 C57.81952301 9.38322647 57.81952301 9.38322647 57.82220459 10.45565796 C57.82662266 12.78296349 57.82368529 15.11019364 57.8203125 17.4375 C57.82098555 19.04793309 57.82195559 20.65836609 57.82321167 22.26879883 C57.82468858 25.64828455 57.82253431 29.0277439 57.81787109 32.40722656 C57.8121738 36.74876505 57.81545285 41.09024173 57.82144356 45.43177795 C57.82504936 48.75850901 57.8239105 52.0852253 57.82131577 55.41195679 C57.82064655 57.01321418 57.82147474 58.6144729 57.82379532 60.21572876 C57.82632216 62.44984511 57.82248085 64.68386 57.81689453 66.91796875 C57.81609894 68.1918042 57.81530334 69.46563965 57.81448364 70.77807617 C57.6875 73.625 57.6875 73.625 56.6875 74.625 C54.578125 74.8984375 54.578125 74.8984375 51.9375 75 C51.07640625 75.04898438 50.2153125 75.09796875 49.328125 75.1484375 C43.2971451 73.9529474 39.22142001 66.75383932 35.5 62.125 C34.93047607 61.42012451 34.36095215 60.71524902 33.77416992 59.98901367 C29.53150413 54.71940763 25.37078248 49.39281237 21.27075195 44.01171875 C18.653211 40.57655544 16.02129575 37.15257499 13.38671875 33.73046875 C12.93147827 33.13890991 12.47623779 32.54735107 12.00720215 31.93786621 C10.90076121 30.50014683 9.79414892 29.0625593 8.6875 27.625 C8.67719254 28.19907089 8.66688507 28.77314178 8.65626526 29.36460876 C8.54842566 35.31765662 8.43381023 41.27054615 8.31518555 47.22338867 C8.27176412 49.44763896 8.23009455 51.67192415 8.19018555 53.89624023 C8.13265694 57.08588195 8.06891316 60.2753468 8.00390625 63.46484375 C7.97883751 64.96639259 7.97883751 64.96639259 7.95326233 66.49827576 C7.93331711 67.41915482 7.91337189 68.34003387 7.89282227 69.28881836 C7.87727798 70.10378281 7.8617337 70.91874725 7.84571838 71.75840759 C7.6875 73.625 7.6875 73.625 6.6875 74.625 C4.66785801 74.69744053 2.64582876 74.70877188 0.625 74.6875 C-0.47972656 74.67847656 -1.58445313 74.66945313 -2.72265625 74.66015625 C-3.57730469 74.64855469 -4.43195313 74.63695312 -5.3125 74.625 C-7.21577604 70.59702485 -7.56527117 67.37545043 -7.57128906 62.9387207 C-7.5747937 62.28771393 -7.57829834 61.63670715 -7.58190918 60.9659729 C-7.59066807 58.82746529 -7.58490035 56.68929186 -7.578125 54.55078125 C-7.57947284 53.06056149 -7.58141437 51.57034216 -7.58392334 50.0801239 C-7.58686625 46.96409906 -7.58260201 43.84818918 -7.57324219 40.73217773 C-7.56181828 36.73380858 -7.56843079 32.73570706 -7.58038712 28.7373476 C-7.58760291 25.66362986 -7.58531962 22.58997596 -7.58013153 19.51625633 C-7.57879579 18.04142411 -7.58044012 16.56658613 -7.58509064 15.09176064 C-7.59015462 13.03538181 -7.58244934 10.97944173 -7.57128906 8.9230957 C-7.56969788 7.75237015 -7.56810669 6.58164459 -7.56646729 5.3754425 C-7.10741256 0.40392179 -4.46208496 0.13002102 0 0 Z " fill="#759967" transform="translate(218.3125,738.375)"/>
<path d="M0 0 C8.35894078 6.2994916 13.77201706 14.46147355 15.42578125 24.828125 C16.32314189 36.6114999 14.9226595 46.54389742 7.80078125 56.203125 C0.6513755 64.45142089 -8.83476606 69.02851318 -19.63671875 70.14453125 C-30.7170329 70.55737949 -41.1044573 68.14264034 -49.640625 60.8125 C-57.11880196 53.13792647 -61.38280251 43.47476693 -61.82421875 32.765625 C-61.63923122 21.64787429 -58.05753709 12.72111655 -50.53515625 4.63671875 C-36.9369387 -8.40892106 -15.80263754 -10.12548471 0 0 Z M-39.22265625 13.21484375 C-45.16070416 20.30274487 -46.33746618 27.20727781 -45.98828125 36.33203125 C-45.22940104 42.73955754 -43.03111401 46.67788068 -38.44921875 51.140625 C-33.07300894 55.34509677 -26.75363028 57.21527255 -19.94921875 56.828125 C-13.78853636 55.8158574 -8.89466356 52.55488146 -4.76171875 47.953125 C0.34458237 40.65840911 1.46324889 34.69270957 0.42578125 25.828125 C-1.40182537 19.29394004 -4.58413918 14.40942648 -10.35546875 10.67578125 C-19.85547949 5.37914828 -30.95428718 5.38529874 -39.22265625 13.21484375 Z " fill="#FEFEFD" transform="translate(703.57421875,744.171875)"/>
<path d="M0 0 C1.58669495 -0.00472824 1.58669495 -0.00472824 3.20544434 -0.009552 C4.93196228 -0.00651566 4.93196228 -0.00651566 6.69335938 -0.00341797 C8.45226501 -0.00485306 8.45226501 -0.00485306 10.2467041 -0.00631714 C12.73169 -0.00699917 15.21667766 -0.00514331 17.70166016 -0.00097656 C21.52054825 0.00437134 25.33931872 -0.00092083 29.15820312 -0.00732422 C31.56575547 -0.00666344 33.97330774 -0.00538229 36.38085938 -0.00341797 C38.10737732 -0.00645432 38.10737732 -0.00645432 39.86877441 -0.009552 C40.92657104 -0.00639984 41.98436768 -0.00324768 43.07421875 0 C44.47867249 0.00119339 44.47867249 0.00119339 45.91149902 0.00241089 C48.03710938 0.12939453 48.03710938 0.12939453 49.03710938 1.12939453 C49.13584754 3.12739025 49.16682737 5.12896611 49.16210938 7.12939453 C49.16597656 8.76908203 49.16597656 8.76908203 49.16992188 10.44189453 C49.03710938 13.12939453 49.03710938 13.12939453 48.03710938 14.12939453 C45.08005617 14.21807752 42.14645881 14.24459749 39.18945312 14.22705078 C37.85981285 14.22492836 37.85981285 14.22492836 36.50331116 14.22276306 C33.66037683 14.21714669 30.81752006 14.20459144 27.97460938 14.19189453 C26.05208447 14.18688164 24.12955833 14.18231837 22.20703125 14.17822266 C17.48369388 14.16717194 12.7604148 14.14989636 8.03710938 14.12939453 C8.03710938 19.40939453 8.03710938 24.68939453 8.03710938 30.12939453 C19.91710937 30.12939453 31.79710937 30.12939453 44.03710938 30.12939453 C44.03710938 34.41939453 44.03710938 38.70939453 44.03710938 43.12939453 C32.15710938 43.12939453 20.27710938 43.12939453 8.03710938 43.12939453 C8.03710938 48.73939453 8.03710938 54.34939453 8.03710938 60.12939453 C9.84683228 60.12153931 9.84683228 60.12153931 11.69311523 60.11352539 C16.15274316 60.09547842 20.61236783 60.08396364 25.07202148 60.07446289 C27.00529523 60.06942197 28.93856514 60.06258934 30.87182617 60.05395508 C33.64437809 60.04187888 36.41687979 60.03616397 39.18945312 60.03173828 C40.49413795 60.02399635 40.49413795 60.02399635 41.82518005 60.01609802 C43.89616752 60.01590268 45.96705262 60.06731285 48.03710938 60.12939453 C49.03710938 61.12939453 49.03710938 61.12939453 49.16992188 63.81689453 C49.16734375 64.91001953 49.16476562 66.00314453 49.16210938 67.12939453 C49.16597656 68.76908203 49.16597656 68.76908203 49.16992188 70.44189453 C49.03710938 73.12939453 49.03710938 73.12939453 48.03710938 74.12939453 C46.38519542 74.22807962 44.7290772 74.2573829 43.07421875 74.25878906 C42.01642212 74.26194122 40.95862549 74.26509338 39.86877441 74.26834106 C38.71776245 74.26631683 37.56675049 74.2642926 36.38085938 74.26220703 C34.62195374 74.26364212 34.62195374 74.26364212 32.82751465 74.2651062 C30.34252875 74.26578823 27.85754109 74.26393237 25.37255859 74.25976562 C21.5536705 74.25441772 17.73490003 74.25970989 13.91601562 74.26611328 C11.50846328 74.2654525 9.10091101 74.26417135 6.69335938 74.26220703 C4.96684143 74.26524338 4.96684143 74.26524338 3.20544434 74.26834106 C2.14764771 74.2651889 1.08985107 74.26203674 0 74.25878906 C-1.40445374 74.25759567 -1.40445374 74.25759567 -2.83728027 74.25637817 C-4.96289062 74.12939453 -4.96289062 74.12939453 -5.96289062 73.12939453 C-6.06252982 70.89552247 -6.09088857 68.65845594 -6.09228516 66.42236328 C-6.09403748 65.72156647 -6.09578979 65.02076965 -6.09759521 64.29873657 C-6.10201328 61.97143105 -6.09907591 59.64420089 -6.09570312 57.31689453 C-6.09637618 55.70646144 -6.09734621 54.09602845 -6.09860229 52.4855957 C-6.10007921 49.10610998 -6.09792493 45.72665063 -6.09326172 42.34716797 C-6.08756443 38.00562948 -6.09084347 33.6641528 -6.09683418 29.32261658 C-6.10043998 25.99588552 -6.09930112 22.66916923 -6.09670639 19.34243774 C-6.09603717 17.74118035 -6.09686536 16.13992163 -6.09918594 14.53866577 C-6.10171278 12.30454942 -6.09787147 10.07053453 -6.09228516 7.83642578 C-6.09148956 6.56259033 -6.09069397 5.28875488 -6.08987427 3.97631836 C-5.87965904 -0.73662519 -4.25303434 0.00361388 0 0 Z " fill="#779B69" transform="translate(304.962890625,738.87060546875)"/>
<path d="M0 0 C0 9.57 0 19.14 0 29 C10.56 28.67 21.12 28.34 32 28 C31.96040599 19.15927137 31.96040599 19.15927137 31.90991211 10.31860352 C31.90741455 9.22475342 31.90491699 8.13090332 31.90234375 7.00390625 C31.89710693 5.87799072 31.89187012 4.7520752 31.88647461 3.59204102 C32 1 32 1 33 0 C37.62 0 42.24 0 47 0 C47 23.76 47 47.52 47 72 C44.25494537 73.37252731 41.99672588 73.13229255 38.9375 73.125 C37.31134766 73.12886719 37.31134766 73.12886719 35.65234375 73.1328125 C33 73 33 73 32 72 C31.91232888 69.92737924 31.89304127 67.85179706 31.90234375 65.77734375 C31.90484131 64.64288818 31.90733887 63.50843262 31.90991211 62.33959961 C31.91901611 60.88690674 31.92812012 59.43421387 31.9375 57.9375 C31.9684375 51.0384375 31.9684375 51.0384375 32 44 C21.44 43.67 10.88 43.34 0 43 C0.03959626 52.49892964 0.03959626 52.49892964 0.09008789 61.99780273 C0.09258545 63.17286377 0.09508301 64.3479248 0.09765625 65.55859375 C0.10289307 66.76829834 0.10812988 67.97800293 0.11352539 69.22436523 C0 72 0 72 -1 73 C-5.29 73 -9.58 73 -14 73 C-14 48.91 -14 24.82 -14 0 C-3 -1 -3 -1 0 0 Z " fill="#FEFEFE" transform="translate(904,740)"/>
<path d="M0 0 C2.12887235 -0.00216422 4.25720726 -0.02025772 6.38598633 -0.03930664 C17.78878864 -0.08808026 28.04103528 0.37824732 36.63793945 8.66967773 C41.21597151 13.86346849 42.97077027 19.31412631 43.09887695 26.18530273 C42.60070412 33.77967084 40.92916969 40.03033348 35.09887695 45.18530273 C28.07288555 49.8220521 21.47715465 52.14939583 13.09887695 52.18530273 C11.8665332 52.19948242 10.63418945 52.21366211 9.36450195 52.22827148 C5.94264009 52.24544951 2.52061749 52.21884921 -0.90112305 52.18530273 C-0.90112305 59.44530273 -0.90112305 66.70530273 -0.90112305 74.18530273 C-5.52112305 74.18530273 -10.14112305 74.18530273 -14.90112305 74.18530273 C-14.90112305 50.09530273 -14.90112305 26.00530273 -14.90112305 1.18530273 C-10.5849906 -0.97276349 -4.79518957 -0.00054571 0 0 Z M-0.90112305 14.18530273 C-0.90112305 22.10530273 -0.90112305 30.02530273 -0.90112305 38.18530273 C2.27512695 38.26780273 5.45137695 38.35030273 8.72387695 38.43530273 C10.20815186 38.48992676 10.20815186 38.48992676 11.72241211 38.5456543 C17.35683458 38.61626966 20.68969692 38.05202844 25.09887695 34.18530273 C27.9294246 29.93948127 27.87296882 26.17045437 27.09887695 21.18530273 C25.21512545 17.56270369 23.02960802 15.49554642 19.09887695 14.18530273 C17.54465966 14.10423588 15.98720668 14.07773376 14.4309082 14.08764648 C13.22398315 14.09139282 13.22398315 14.09139282 11.99267578 14.09521484 C10.97584717 14.10431885 9.95901855 14.11342285 8.91137695 14.12280273 C5.67325195 14.14342773 2.43512695 14.16405273 -0.90112305 14.18530273 Z " fill="#FEFEFD" transform="translate(1027.901123046875,738.814697265625)"/>
<path d="M0 0 C0.928125 0.86625 0.928125 0.86625 1.875 1.75 C1.41800722 6.77692063 -1.11741748 9.89896261 -4.125 13.75 C-4.68832031 13.46253906 -5.25164063 13.17507813 -5.83203125 12.87890625 C-13.42038747 9.14290123 -21.58132066 5.24858685 -30.125 7.5625 C-32.27208106 8.59353079 -32.27208106 8.59353079 -33.125 10.75 C-33.16522391 13.0829866 -33.16820247 15.41706666 -33.125 17.75 C-28.06048657 20.89785132 -23.43706948 22.70508863 -17.6875 24.1875 C-8.48193331 26.74405242 -1.74573481 29.74471102 3.875 37.75 C5.78125413 43.65205607 5.87169336 50.31290365 3.3125 56 C-0.25370702 62.12941831 -4.65627912 65.56573095 -11.4375 67.625 C-23.09537546 70.29328757 -34.37750762 68.80039536 -44.75 62.6875 C-47.16324511 61.15286355 -49.10062968 59.77437032 -51.125 57.75 C-51.25 55.5 -51.25 55.5 -50.125 52.75 C-47.61753122 50.5064753 -44.92693132 48.60731666 -42.125 46.75 C-41.55652344 47.15992188 -40.98804688 47.56984375 -40.40234375 47.9921875 C-33.55666334 52.76930672 -27.68267706 55.51407831 -19.125 54.75 C-16.22835818 54.11527769 -14.74598707 53.37501198 -12.125 51.75 C-10.71150231 48.35581779 -10.71150231 48.35581779 -11.125 44.75 C-14.44273235 39.91744868 -19.63945199 39.12239416 -25 37.6875 C-40.12311947 33.53799779 -40.12311947 33.53799779 -44.375 28.375 C-44.85453125 27.81039062 -45.3340625 27.24578125 -45.828125 26.6640625 C-49.61747426 21.07134823 -50.01830074 15.31622089 -49.125 8.75 C-46.59507442 2.31117653 -41.79619958 -2.36733355 -35.6875 -5.5 C-23.56074025 -9.04929554 -10.32412859 -7.43337259 0 0 Z " fill="#FEFEFE" transform="translate(866.125,745.25)"/>
<path d="M0 0 C5.94 0 11.88 0 18 0 C18.50861572 1.32950684 19.01723145 2.65901367 19.54125977 4.02880859 C21.46231417 9.04999422 23.38402179 14.07092965 25.3059082 19.09179688 C26.13127654 21.24830618 26.95647712 23.4048797 27.78149414 25.56152344 C32.81637543 38.7226113 37.87454012 51.87389859 43 65 C48.64416196 53.12765642 53.87685699 41.10558989 59 29 C59.99 29 60.98 29 62 29 C63.04543484 31.15753508 64.06037149 33.32242584 65.0625 35.5 C65.35705078 36.10070312 65.65160156 36.70140625 65.95507812 37.3203125 C68.09941954 42.06309115 68.46827624 45.95052357 67 51 C65.29341652 55.46525693 63.32281175 59.78942166 61.3125 64.125 C60.21662359 66.53087469 59.12156327 68.93712129 58.02734375 71.34375 C57.50253418 72.49101563 56.97772461 73.63828125 56.43701172 74.8203125 C54.20338191 79.76268331 52.13203478 84.76682373 50.0859375 89.7890625 C49 92 49 92 47 93 C39.69915715 93.58877765 39.69915715 93.58877765 37.03759766 91.34741211 C34.71588726 88.67268824 33.63140037 86.30617128 32.328125 83.015625 C32.08866653 82.41956451 31.84920807 81.82350403 31.60249329 81.2093811 C30.80864246 79.22663197 30.02947231 77.23844074 29.25 75.25 C28.68970957 73.84351843 28.12840656 72.43743987 27.56616211 71.03173828 C26.35276896 67.99308892 25.1455339 64.95209174 23.94287109 61.90917969 C20.85255291 54.09287488 17.72670501 46.29073846 14.60559082 38.48669434 C13.58705143 35.93647195 12.57191399 33.38492013 11.55761719 30.83300781 C10.91502654 29.21927637 10.27212981 27.60566677 9.62890625 25.9921875 C9.32181732 25.22128784 9.01472839 24.45038818 8.69833374 23.65612793 C6.27601585 17.60968813 3.70238423 11.63920571 1.04663086 5.69189453 C0 3 0 3 0 0 Z " fill="#7E9F71" transform="translate(632,508)"/>
<path d="M0 0 C3.76156218 1.50462487 3.76156218 1.50462487 4.90625 3.8828125 C6.15805622 6.30595168 7.49311273 7.44931906 9.625 9.125 C11.5390625 10.6328125 11.5390625 10.6328125 13 12 C13 12.66 13 13.32 13 14 C13.99 14.33 14.98 14.66 16 15 C17.46164233 17.92328466 17.16528637 20.52959508 17.20532227 23.79443359 C17.21522186 24.49411758 17.22512146 25.19380157 17.23532104 25.91468811 C17.26704385 28.2425698 17.29177887 30.57047076 17.31640625 32.8984375 C17.33700946 34.52918992 17.35800674 36.15993741 17.37937927 37.79067993 C17.42342028 41.22565918 17.46430195 44.66065606 17.50268555 48.09570312 C17.55123531 52.43940238 17.60492236 56.78301625 17.66063881 61.12662888 C17.78401677 70.7533318 17.89198569 80.38010781 17.98142242 90.00718689 C17.99845194 91.83393937 18.01636328 93.66068358 18.03436279 95.48742676 C18.059455 98.27548628 18.07703883 101.06342346 18.08984375 103.8515625 C18.09994225 104.94723038 18.09994225 104.94723038 18.11024475 106.06503296 C18.11716003 111.11454927 17.61982415 115.99671828 17 121 C11.39 121 5.78 121 0 121 C0 87.67 0 54.34 0 20 C-9.50278256 24.49031822 -9.50278256 24.49031822 -17.5625 30.1875 C-18.34753906 30.84105469 -19.13257813 31.49460937 -19.94140625 32.16796875 C-21.98216115 33.93284098 -21.98216115 33.93284098 -23.65234375 35.73828125 C-25 37 -25 37 -27 37 C-22.38298365 26.74750782 -10.75025206 19.87512603 -1 15 C-1 12.69 -1 10.38 -1 8 C-9.14532588 12.94753128 -17.66408039 18.99612058 -23 27 C-23.66 27 -24.32 27 -25 27 C-23.68248659 23.14651461 -22.1267263 20.74276028 -19.26171875 17.86328125 C-18.52373047 17.12142578 -17.78574219 16.37957031 -17.02539062 15.61523438 C-15.86813477 14.47538086 -15.86813477 14.47538086 -14.6875 13.3125 C-13.92759766 12.54099609 -13.16769531 11.76949219 -12.38476562 10.97460938 C-11.64291016 10.23662109 -10.90105469 9.49863281 -10.13671875 8.73828125 C-9.12677856 7.73341675 -9.12677856 7.73341675 -8.09643555 6.70825195 C-6 5 -6 5 -3.30395508 3.95385742 C-2.5436499 3.63908447 -1.78334473 3.32431152 -1 3 C-0.67 2.01 -0.34 1.02 0 0 Z " fill="#81A072" transform="translate(515,440)"/>
<path d="M0 0 C1.48831242 0.00667405 2.97660807 0.01863442 4.46484375 0.03515625 C5.22345703 0.03966797 5.98207031 0.04417969 6.76367188 0.04882812 C8.64326246 0.06064945 10.52281274 0.07858547 12.40234375 0.09765625 C13.61731139 4.84642423 13.54311631 9.46975018 13.53173828 14.33496094 C13.5334906 15.25757721 13.53524292 16.18019348 13.53704834 17.13076782 C13.54144476 20.17704151 13.53853564 23.22325698 13.53515625 26.26953125 C13.53583015 28.39316824 13.5368009 30.51680516 13.53805542 32.64044189 C13.53952959 37.09233331 13.53738767 41.54420466 13.53271484 45.99609375 C13.52703163 51.68641137 13.53028941 57.37668167 13.53628731 63.06699753 C13.53991234 67.45432894 13.53874518 71.84164926 13.53615952 76.22898102 C13.5354949 78.32602189 13.53630234 80.42306378 13.53863907 82.52010345 C13.54119595 85.46102028 13.53728182 88.40186215 13.53173828 91.34277344 C13.53376251 92.20023163 13.53578674 93.05768982 13.53787231 93.94113159 C13.51894221 99.39834389 13.0870722 104.68244358 12.40234375 110.09765625 C10.88531027 110.26248484 9.36282489 110.37732807 7.83984375 110.47265625 C6.56947266 110.57707031 6.56947266 110.57707031 5.2734375 110.68359375 C0.91337418 109.79378491 -1.86894937 107.593299 -4.59765625 104.09765625 C-5.58072357 100.71372273 -5.4961623 97.48130223 -5.40820312 93.97729492 C-5.4108316 92.97340729 -5.41346008 91.96951965 -5.41616821 90.93521118 C-5.41638932 87.62762251 -5.36686915 84.32279677 -5.31640625 81.015625 C-5.30588455 78.71732208 -5.29831646 76.41900389 -5.2935791 74.12068176 C-5.27255057 68.0789494 -5.20861678 62.03837983 -5.13659668 55.99707031 C-5.0847049 51.05059575 -5.06276197 46.10420226 -5.04247284 41.15751171 C-5.00023142 30.96185655 -4.93895723 20.76613542 -4.82226562 10.57104492 C-4.81486359 9.6209404 -4.80746155 8.67083588 -4.79983521 7.69194031 C-4.69868936 0.12754314 -4.69868936 0.12754314 0 0 Z " fill="#81A071" transform="translate(625.59765625,391.90234375)"/>
<path d="M0 0 C0.9796875 0.01417969 1.959375 0.02835938 2.96875 0.04296875 C3.9484375 0.04941406 4.928125 0.05585937 5.9375 0.0625 C8.46875 0.23046875 8.46875 0.23046875 10.46875 1.23046875 C10.49187504 10.60082813 10.50966591 19.97117776 10.52056217 29.34155941 C10.52579065 33.69215334 10.53288765 38.04272782 10.54418945 42.39331055 C10.55501959 46.58837133 10.5610271 50.78341334 10.56362724 54.97848701 C10.56548126 56.58253843 10.56910144 58.18658878 10.57448006 59.79063225 C10.58169219 62.0296339 10.58274087 64.26855705 10.58227539 66.50756836 C10.584496 67.78442001 10.58671661 69.06127167 10.58900452 70.3768158 C10.46875 73.23046875 10.46875 73.23046875 9.46875 74.23046875 C7.28235547 74.30305821 5.09374611 74.31420658 2.90625 74.29296875 C1.70871094 74.28394531 0.51117187 74.27492188 -0.72265625 74.265625 C-2.11291016 74.24822266 -2.11291016 74.24822266 -3.53125 74.23046875 C-4.34693239 69.94246348 -4.66209328 65.88485004 -4.67651367 61.52246094 C-4.68289352 60.20799988 -4.68927338 58.89353882 -4.69584656 57.53924561 C-4.69737454 56.11861203 -4.69848887 54.69797796 -4.69921875 53.27734375 C-4.70243437 51.81097379 -4.70579867 50.34460415 -4.70930481 48.87823486 C-4.71527395 45.81530004 -4.71714673 42.75239335 -4.71655273 39.68945312 C-4.71645064 35.75951257 -4.7301609 31.82975078 -4.74732494 27.89985275 C-4.75841885 24.87676151 -4.76047284 21.85371407 -4.75994301 18.83060455 C-4.76112483 17.38088611 -4.76555793 15.93116659 -4.77327538 14.4814682 C-4.7830323 12.46130182 -4.77894416 10.44108274 -4.77416992 8.42089844 C-4.77630745 6.69598175 -4.77630745 6.69598175 -4.77848816 4.93621826 C-4.44686656 1.30698492 -3.66156507 0.33338324 0 0 Z " fill="#FEFEFD" transform="translate(978.53125,738.76953125)"/>
<path d="M0 0 C4.47362089 0.6639315 8.34943939 2.32898898 12.44140625 4.16796875 C13.91703008 4.81868649 15.39295309 5.46872612 16.86914062 6.11816406 C18.01926636 6.62627625 18.01926636 6.62627625 19.19262695 7.14465332 C53.66748367 22.31508193 87.58287641 31.49440875 124.3515625 18.51953125 C133.05121811 14.89622715 140.87183289 10.17417181 148 4 C148.99 4.495 148.99 4.495 150 5 C138.4708835 20.48195644 118.2881288 28.90767519 99.8125 32.25 C64.37980524 36.97152355 31.05516877 23.80519317 0 8 C0 5.36 0 2.72 0 0 Z " fill="#81A075" transform="translate(645,438)"/>
<path d="M0 0 C3.76171875 0.5078125 3.76171875 0.5078125 5.20849609 1.82128906 C6.58242357 3.70162039 7.77865697 5.61967244 8.94921875 7.6328125 C9.36107422 8.29796875 9.77292969 8.963125 10.19726562 9.6484375 C11.0111761 10.96410896 11.81718828 12.28470335 12.61474609 13.61035156 C15.43453411 18.82104025 15.43453411 18.82104025 19.76171875 22.5078125 C20.02210938 21.79496094 20.2825 21.08210937 20.55078125 20.34765625 C22.26897122 16.31822364 24.63630935 12.83068818 27.0390625 9.1796875 C28.72534896 6.65440999 28.72534896 6.65440999 29.828125 4.4609375 C30.69921875 2.8203125 30.69921875 2.8203125 32.76171875 0.5078125 C35.45736717 0.19585519 38.03928456 0.40616763 40.76171875 0.5078125 C40.78698999 6.75576925 40.80455219 13.00371291 40.81665039 19.25170898 C40.82169173 21.37899264 40.82852466 23.50627281 40.8371582 25.63354492 C40.84923254 28.68409076 40.85494889 31.73459095 40.859375 34.78515625 C40.86453629 35.74244125 40.86969757 36.69972626 40.87501526 37.6860199 C40.87509079 38.56685745 40.87516632 39.44769501 40.87524414 40.35522461 C40.87746475 41.13465927 40.87968536 41.91409393 40.88197327 42.71714783 C40.76171875 44.5078125 40.76171875 44.5078125 39.76171875 45.5078125 C37.26171875 45.6328125 37.26171875 45.6328125 34.76171875 45.5078125 C32.87540332 43.62149707 33.51906583 40.36580557 33.4453125 37.84765625 C33.4245314 37.18318985 33.40375031 36.51872345 33.38233948 35.8341217 C33.31678217 33.70462707 33.2579309 31.57500582 33.19921875 29.4453125 C33.15603936 28.00454403 33.11242526 26.56378851 33.06835938 25.12304688 C32.96109482 21.5847721 32.85984504 18.04635381 32.76171875 14.5078125 C32.43896973 15.00708252 32.1162207 15.50635254 31.78369141 16.02075195 C30.31825241 18.28741352 28.85248906 20.55386516 27.38671875 22.8203125 C26.87882813 23.60599609 26.3709375 24.39167969 25.84765625 25.20117188 C25.3578125 25.95849609 24.86796875 26.71582031 24.36328125 27.49609375 C23.91291504 28.19259033 23.46254883 28.88908691 22.99853516 29.60668945 C21.93087982 31.2477933 20.84772905 32.87879705 19.76171875 34.5078125 C18.77171875 34.5078125 17.78171875 34.5078125 16.76171875 34.5078125 C15.53491211 33.08666992 15.53491211 33.08666992 14.3515625 31.11328125 C13.91908203 30.40494141 13.48660156 29.69660156 13.04101562 28.96679688 C12.59822266 28.21720703 12.15542969 27.46761719 11.69921875 26.6953125 C10.81259987 25.2304083 9.92588473 23.76556236 9.0390625 22.30078125 C8.64968506 21.6461792 8.26030762 20.99157715 7.85913086 20.31713867 C6.87026339 18.68677231 5.81943084 17.09438064 4.76171875 15.5078125 C4.74189941 16.34554199 4.72208008 17.18327148 4.70166016 18.04638672 C4.62361263 21.15147084 4.5369224 24.25615789 4.44433594 27.36083984 C4.38717839 29.36668221 4.34003279 31.37280168 4.29296875 33.37890625 C4.23496094 35.26416016 4.23496094 35.26416016 4.17578125 37.1875 C4.14436035 38.35007324 4.11293945 39.51264648 4.08056641 40.71044922 C3.76171875 43.5078125 3.76171875 43.5078125 1.76171875 45.5078125 C-0.86328125 45.6328125 -0.86328125 45.6328125 -3.23828125 45.5078125 C-4.37733444 43.22970611 -4.36495115 41.9708488 -4.36767578 39.44116211 C-4.37082794 38.60366928 -4.3739801 37.76617645 -4.37722778 36.90330505 C-4.37520355 35.99806595 -4.37317932 35.09282684 -4.37109375 34.16015625 C-4.37205048 33.23312393 -4.3730072 32.30609161 -4.37399292 31.35096741 C-4.37467401 29.38982068 -4.37282465 27.4286717 -4.36865234 25.4675293 C-4.36329707 22.45421323 -4.36860283 19.44104582 -4.375 16.42773438 C-4.37433932 14.52604134 -4.37305838 12.62434839 -4.37109375 10.72265625 C-4.37311798 9.81539291 -4.37514221 8.90812958 -4.37722778 7.97337341 C-4.34968115 0.68209717 -4.34968115 0.68209717 0 0 Z " fill="#FEFEFD" transform="translate(724.23828125,848.4921875)"/>
<path d="M0 0 C0.99 0.495 0.99 0.495 2 1 C-13.08637733 20.82364558 -32.85354699 31.34293895 -57.1875 35.3125 C-87.9006462 38.94223546 -117.94883446 28.85547503 -145 15 C-145 12.03 -145 9.06 -145 6 C-141.08748944 7.24850584 -137.37300214 8.66307534 -133.6484375 10.390625 C-123.6308968 14.96482619 -113.69973172 19.42848551 -103.125 22.5625 C-102.36106934 22.78905273 -101.59713867 23.01560547 -100.81005859 23.24902344 C-74.15022152 30.74655774 -44.53510939 29.39154531 -20 16 C-12.50694907 11.58799944 -5.87799533 6.4247856 0 0 Z " fill="#82A175" transform="translate(790,454)"/>
<path d="M0 0 C6.72216797 -0.25683594 6.72216797 -0.25683594 9.22265625 2.0546875 C9.82980469 2.98539063 10.43695313 3.91609375 11.0625 4.875 C11.72636719 5.87015625 12.39023437 6.8653125 13.07421875 7.890625 C15.36793068 11.59406252 17.63138299 15.30809167 19.7734375 19.1015625 C20.86531284 21.14456186 20.86531284 21.14456186 23 22 C23.22558594 21.33355469 23.45117188 20.66710937 23.68359375 19.98046875 C25.39334256 16.1094351 27.67490985 12.79426159 30.0625 9.3125 C33.24202617 4.78254162 33.24202617 4.78254162 36 0 C38.64 0 41.28 0 44 0 C44.02527124 6.24795675 44.04283344 12.49590041 44.05493164 18.74389648 C44.05997298 20.87118014 44.06680591 22.99846031 44.07543945 25.12573242 C44.08751379 28.17627826 44.09323014 31.22677845 44.09765625 34.27734375 C44.10281754 35.23462875 44.10797882 36.19191376 44.11329651 37.1782074 C44.11337204 38.05904495 44.11344757 38.93988251 44.11352539 39.84741211 C44.115746 40.62684677 44.11796661 41.40628143 44.12025452 42.20933533 C44 44 44 44 43 45 C40.5 45.125 40.5 45.125 38 45 C37 44 37 44 36.90234375 41.45556641 C36.91394531 40.34874512 36.92554688 39.24192383 36.9375 38.1015625 C36.94523437 36.90015625 36.95296875 35.69875 36.9609375 34.4609375 C36.98689962 31.91145752 37.0129408 29.36197835 37.0390625 26.8125 C37.04679687 25.60851562 37.05453125 24.40453125 37.0625 23.1640625 C37.07410156 22.05498535 37.08570313 20.9459082 37.09765625 19.80322266 C37.12948278 16.91677055 37.12948278 16.91677055 36 14 C35.31292969 15.10859375 34.62585938 16.2171875 33.91796875 17.359375 C33.00790881 18.82297656 32.09774722 20.28651491 31.1875 21.75 C30.73568359 22.47960937 30.28386719 23.20921875 29.81835938 23.9609375 C27.66820353 27.41374251 25.52949728 30.80661473 23 34 C19.47063628 32.82354543 19.05686799 32.00142068 17.08203125 28.96484375 C16.55029297 28.15595703 16.01855469 27.34707031 15.47070312 26.51367188 C14.92349609 25.66353516 14.37628906 24.81339844 13.8125 23.9375 C13.25369141 23.08349609 12.69488281 22.22949219 12.11914062 21.34960938 C10.73873798 19.23771131 9.3661115 17.12115946 8 15 C7.98018066 15.83772949 7.96036133 16.67545898 7.93994141 17.53857422 C7.86189388 20.64365834 7.77520365 23.74834539 7.68261719 26.85302734 C7.62545964 28.85886971 7.57831404 30.86498918 7.53125 32.87109375 C7.47324219 34.75634766 7.47324219 34.75634766 7.4140625 36.6796875 C7.3826416 37.84226074 7.3512207 39.00483398 7.31884766 40.20263672 C7 43 7 43 5 45 C2.375 45.125 2.375 45.125 0 45 C-1.07045596 39.87478663 -1.04976654 35.07850552 -0.87890625 29.8828125 C-0.85529526 29.02565643 -0.83168427 28.16850037 -0.80735779 27.28536987 C-0.73118088 24.56505852 -0.64696063 21.8450655 -0.5625 19.125 C-0.50923321 17.27345274 -0.45649317 15.42189025 -0.40429688 13.5703125 C-0.27562847 9.04667589 -0.13974909 4.5233073 0 0 Z " fill="#FDFDFD" transform="translate(369,849)"/>
<path d="M0 0 C4.63273871 1.05632479 6.72964361 3.62838365 9.625 7.25 C10.25535156 8.02996338 10.25535156 8.02996338 10.8984375 8.82568359 C12.27824763 10.54080787 13.64064302 12.26862825 15 14 C15.7420166 14.94117676 15.7420166 14.94117676 16.49902344 15.90136719 C18.47905499 18.41414265 20.45823064 20.92734856 22.42041016 23.45410156 C24.20094513 25.74401471 25.94653874 27.94653874 28 30 C28.02505615 29.15703369 28.0501123 28.31406738 28.07592773 27.44555664 C28.17088155 24.32758326 28.27012448 21.20978497 28.37231445 18.09204102 C28.41571223 16.74085853 28.4573837 15.38961947 28.49731445 14.03833008 C28.55489952 12.09963299 28.61914298 10.16113724 28.68359375 8.22265625 C28.72025146 7.05484619 28.75690918 5.88703613 28.79467773 4.68383789 C29 2 29 2 30 1 C33 0.875 33 0.875 36 1 C37.53084425 2.53084425 37.12715779 3.91203144 37.12939453 6.04492188 C37.13254669 6.90251099 37.13569885 7.7601001 37.13894653 8.64367676 C37.1369223 9.57595093 37.13489807 10.5082251 37.1328125 11.46875 C37.13376923 12.41939331 37.13472595 13.37003662 37.13571167 14.3494873 C37.13639357 16.36368882 37.13453862 18.37789252 37.13037109 20.39208984 C37.12502298 23.48670355 37.13031577 26.5811721 37.13671875 29.67578125 C37.13605797 31.62760449 37.13477681 33.57942764 37.1328125 35.53125 C37.13483673 36.46352417 37.13686096 37.39579834 37.13894653 38.35632324 C37.13421829 39.64270691 37.13421829 39.64270691 37.12939453 40.95507812 C37.12859894 41.71373169 37.12780334 42.47238525 37.12698364 43.25402832 C37 45 37 45 36 46 C33.66796875 46.29296875 33.66796875 46.29296875 31 46 C29.11328125 44.48828125 29.11328125 44.48828125 27.3125 42.3125 C26.62929688 41.49394531 25.94609375 40.67539062 25.2421875 39.83203125 C21.9253997 35.64270868 18.6393025 31.43309773 15.41015625 27.17578125 C13.25099521 24.33072788 11.07078758 21.50431842 8.875 18.6875 C8.31554687 17.96949219 7.75609375 17.25148438 7.1796875 16.51171875 C6.79039062 16.01285156 6.40109375 15.51398437 6 15 C4.69752039 20.90186073 4.92539744 26.74449384 5 32.75 C5.02543542 34.82807377 5.04649357 36.90620722 5.0625 38.984375 C5.07410156 39.89928711 5.08570313 40.81419922 5.09765625 41.75683594 C5 44 5 44 4 46 C2.02 46 0.04 46 -2 46 C-2.86922658 40.72759211 -3.17353781 35.63223003 -3.203125 30.29296875 C-3.20882507 29.48636307 -3.21452515 28.67975739 -3.22039795 27.84870911 C-3.22978577 26.15704641 -3.23635696 24.46536594 -3.24023438 22.77368164 C-3.25003745 20.17758283 -3.28115604 17.5822449 -3.3125 14.98632812 C-3.31902187 13.33854634 -3.32427553 11.69075894 -3.328125 10.04296875 C-3.3404718 9.26592087 -3.3528186 8.48887299 -3.36553955 7.6882782 C-3.35644531 5.51245117 -3.35644531 5.51245117 -3 2 C-2.01 1.34 -1.02 0.68 0 0 Z " fill="#FDFDFD" transform="translate(496,848)"/>
<path d="M0 0 C7 0 7 0 9.7734375 2.67578125 C10.6626026 3.87199377 11.52885929 5.08547724 12.375 6.3125 C13.32045061 7.59981401 14.26708181 8.88626171 15.21484375 10.171875 C15.91262939 11.13963867 15.91262939 11.13963867 16.62451172 12.12695312 C18.63088592 14.85909776 20.77367744 17.45307972 22.9375 20.0625 C25.65230971 23.35579252 28.33320043 26.66650054 31 30 C31.33 20.1 31.66 10.2 32 0 C34.31 0 36.62 0 39 0 C39.02527124 6.24795675 39.04283344 12.49590041 39.05493164 18.74389648 C39.05997298 20.87118014 39.06680591 22.99846031 39.07543945 25.12573242 C39.08751379 28.17627826 39.09323014 31.22677845 39.09765625 34.27734375 C39.10281754 35.23462875 39.10797882 36.19191376 39.11329651 37.1782074 C39.11337204 38.05904495 39.11344757 38.93988251 39.11352539 39.84741211 C39.115746 40.62684677 39.11796661 41.40628143 39.12025452 42.20933533 C39 44 39 44 38 45 C35.7265625 45.3828125 35.7265625 45.3828125 33 45 C30.7109375 42.8671875 30.7109375 42.8671875 28.375 39.875 C27.95331543 39.34382568 27.53163086 38.81265137 27.09716797 38.26538086 C25.71727679 36.52090897 24.35928997 34.76055463 23 33 C22.01726765 31.75261037 21.03287477 30.50652726 20.046875 29.26171875 C18.17134565 26.89050936 16.30363341 24.51362443 14.4453125 22.12890625 C12.31547389 19.40366547 10.16321535 16.6987298 8 14 C7.96241577 15.35532837 7.96241577 15.35532837 7.92407227 16.73803711 C7.82912683 20.0796428 7.72988379 23.42106252 7.62768555 26.76245117 C7.5842837 28.2106424 7.54261256 29.65888654 7.50268555 31.10717773 C7.44510938 33.18489559 7.38137972 35.26234573 7.31640625 37.33984375 C7.27974854 38.59144287 7.24309082 39.84304199 7.20532227 41.13256836 C7 44 7 44 6 45 C4.02 45 2.04 45 0 45 C0 30.15 0 15.3 0 0 Z " fill="#FDFDFD" transform="translate(837,849)"/>
<path d="M0 0 C1.0374939 0.00303635 1.0374939 0.00303635 2.09594727 0.00613403 C2.80243408 0.00517731 3.5089209 0.00422058 4.23681641 0.00323486 C5.7331552 0.00255321 7.22949694 0.00440649 8.72583008 0.00857544 C11.02374884 0.01392396 13.32147213 0.00863003 15.61938477 0.00222778 C17.06990603 0.00288857 18.52042718 0.00416974 19.97094727 0.00613403 C20.66260986 0.0041098 21.35427246 0.00208557 22.06689453 0 C26.91849503 0.0239943 26.91849503 0.0239943 28.03344727 1.13894653 C28.07408559 2.80511768 28.07616827 4.47282748 28.03344727 6.13894653 C25.47621497 7.41756268 23.66607624 7.25231263 20.80688477 7.23660278 C19.77563477 7.23338013 18.74438477 7.23015747 17.68188477 7.22683716 C16.0615332 7.2142688 16.0615332 7.2142688 14.40844727 7.20144653 C12.77649414 7.19467896 12.77649414 7.19467896 11.11157227 7.18777466 C8.41884064 7.17596443 5.72613718 7.15802859 3.03344727 7.13894653 C2.70344727 11.09894653 2.37344727 15.05894653 2.03344727 19.13894653 C3.52618164 19.05515747 5.01891602 18.97136841 6.55688477 18.88504028 C8.50739043 18.78188854 10.45791213 18.67903961 12.40844727 18.57644653 C13.39329102 18.52037231 14.37813477 18.4642981 15.39282227 18.40652466 C16.33383789 18.35818481 17.27485352 18.30984497 18.24438477 18.26004028 C19.54835205 18.18934326 19.54835205 18.18934326 20.87866211 18.11721802 C23.03344727 18.13894653 23.03344727 18.13894653 25.03344727 19.13894653 C25.03344727 21.11894653 25.03344727 23.09894653 25.03344727 25.13894653 C19.93045956 26.2394311 15.31262878 26.08145822 10.15844727 25.70144653 C9.37469727 25.6492395 8.59094727 25.59703247 7.78344727 25.54324341 C5.86635606 25.41465802 3.94983224 25.27766037 2.03344727 25.13894653 C2.03344727 29.42894653 2.03344727 33.71894653 2.03344727 38.13894653 C10.61344727 38.13894653 19.19344727 38.13894653 28.03344727 38.13894653 C28.03344727 40.11894653 28.03344727 42.09894653 28.03344727 44.13894653 C27.03344727 45.13894653 27.03344727 45.13894653 23.98242188 45.25247192 C22.63353456 45.25231288 21.28464113 45.24662265 19.93579102 45.23660278 C18.87250328 45.23448036 18.87250328 45.23448036 17.78773499 45.23231506 C15.51543014 45.22670096 13.24322251 45.21414616 10.97094727 45.20144653 C9.43383931 45.19643335 7.89672982 45.19187013 6.35961914 45.18777466 C2.58419085 45.17672696 -1.19116444 45.15945295 -4.96655273 45.13894653 C-6.10560593 42.86084015 -6.09322263 41.60198283 -6.09594727 39.07229614 C-6.09909943 38.23480331 -6.10225159 37.39731049 -6.10549927 36.53443909 C-6.10347504 35.62919998 -6.10145081 34.72396088 -6.09936523 33.79129028 C-6.10032196 32.86425797 -6.10127869 31.93722565 -6.1022644 30.98210144 C-6.1029455 29.02095471 -6.10109613 27.05980574 -6.09692383 25.09866333 C-6.09156855 22.08534726 -6.09687432 19.07217985 -6.10327148 16.05886841 C-6.10261081 14.15717537 -6.10132987 12.25548242 -6.09936523 10.35379028 C-6.10138947 9.44652695 -6.1034137 8.53926361 -6.10549927 7.60450745 C-6.07688279 0.03005411 -6.07688279 0.03005411 0 0 Z " fill="#FEFEFE" transform="translate(790.966552734375,848.8610534667969)"/>
<path d="M0 0 C1.71875 1.60546875 1.71875 1.60546875 3 3 C1.63016497 6.16115776 1.0109362 6.9927092 -2 9 C-2.763125 8.34 -3.52625 7.68 -4.3125 7 C-8.83409712 3.99276201 -13.77869406 4.22301995 -19 5 C-23.54462891 7.27231445 -26.85816742 9.98971411 -28.6875 14.8125 C-29.57171717 21.00202018 -29.02649899 25.46881218 -26 31 C-21.11110569 35.53117034 -18.04240469 36.27198495 -11.5546875 36.234375 C-8.21937387 35.92838292 -5.81228233 34.77617832 -3 33 C-3 30.36 -3 27.72 -3 25 C-6.96 24.67 -10.92 24.34 -15 24 C-15 22.02 -15 20.04 -15 18 C-8.4 18 -1.8 18 5 18 C5.94199375 34.24939215 5.94199375 34.24939215 3.67578125 38.4609375 C-2.31150521 43.40641101 -11.04852326 44.1741345 -18.5546875 43.91015625 C-24.74374986 42.95716914 -29.00600814 39.7152545 -33 35 C-37.15691104 28.78219785 -38.01797506 22.33790357 -37 15 C-35.1568385 7.7655911 -31.0744958 3.1843885 -25 -1 C-17.13753547 -5.01859298 -7.68937195 -3.70737576 0 0 Z " fill="#FEFEFE" transform="translate(646,851)"/>
<path d="M0 0 C1.0374939 0.00303635 1.0374939 0.00303635 2.09594727 0.00613403 C2.80243408 0.00517731 3.5089209 0.00422058 4.23681641 0.00323486 C5.7331552 0.00255321 7.22949694 0.00440649 8.72583008 0.00857544 C11.02374884 0.01392396 13.32147213 0.00863003 15.61938477 0.00222778 C17.06990603 0.00288857 18.52042718 0.00416974 19.97094727 0.00613403 C20.66260986 0.0041098 21.35427246 0.00208557 22.06689453 0 C26.91849503 0.0239943 26.91849503 0.0239943 28.03344727 1.13894653 C28.07408559 2.80511768 28.07616827 4.47282748 28.03344727 6.13894653 C22.71712141 7.25267765 17.61900197 7.22067333 12.22094727 7.13894653 C10.50616486 7.11356115 8.7913113 7.09248608 7.07641602 7.07644653 C6.32384521 7.06484497 5.57127441 7.05324341 4.79589844 7.04129028 C3.00613147 6.94396117 3.00613147 6.94396117 2.03344727 8.13894653 C1.96139215 9.82503619 1.94958659 11.51395313 1.97094727 13.20144653 C1.98448242 14.58009888 1.98448242 14.58009888 1.99829102 15.98660278 C2.00989258 16.69687622 2.02149414 17.40714966 2.03344727 18.13894653 C2.65912598 18.1284729 3.28480469 18.11799927 3.92944336 18.10720825 C6.75573737 18.06571462 9.58196737 18.0396418 12.40844727 18.01394653 C13.39329102 17.99718872 14.37813477 17.98043091 15.39282227 17.96316528 C16.8043457 17.95349731 16.8043457 17.95349731 18.24438477 17.94363403 C19.54835205 17.92792358 19.54835205 17.92792358 20.87866211 17.91189575 C23.03344727 18.13894653 23.03344727 18.13894653 25.03344727 20.13894653 C24.70344727 21.78894653 24.37344727 23.43894653 24.03344727 25.13894653 C16.77344727 25.13894653 9.51344727 25.13894653 2.03344727 25.13894653 C2.03344727 28.76894653 2.03344727 32.39894653 2.03344727 36.13894653 C1.70344727 36.79894653 1.37344727 37.45894653 1.03344727 38.13894653 C1.81582764 38.13370972 2.59820801 38.1284729 3.40429688 38.12307739 C6.9265056 38.10237547 10.44870157 38.08930815 13.97094727 38.07644653 C15.81849609 38.06387817 15.81849609 38.06387817 17.70336914 38.05105591 C18.87319336 38.04783325 20.04301758 38.0446106 21.24829102 38.04129028 C22.87432251 38.03343506 22.87432251 38.03343506 24.53320312 38.02542114 C27.03344727 38.13894653 27.03344727 38.13894653 28.03344727 39.13894653 C28.15844727 41.63894653 28.15844727 41.63894653 28.03344727 44.13894653 C27.03344727 45.13894653 27.03344727 45.13894653 23.98242188 45.25247192 C22.63353456 45.25231288 21.28464113 45.24662265 19.93579102 45.23660278 C18.87250328 45.23448036 18.87250328 45.23448036 17.78773499 45.23231506 C15.51543014 45.22670096 13.24322251 45.21414616 10.97094727 45.20144653 C9.43383931 45.19643335 7.89672982 45.19187013 6.35961914 45.18777466 C2.58419085 45.17672696 -1.19116444 45.15945295 -4.96655273 45.13894653 C-6.10560593 42.86084015 -6.09322263 41.60198283 -6.09594727 39.07229614 C-6.09909943 38.23480331 -6.10225159 37.39731049 -6.10549927 36.53443909 C-6.10347504 35.62919998 -6.10145081 34.72396088 -6.09936523 33.79129028 C-6.10032196 32.86425797 -6.10127869 31.93722565 -6.1022644 30.98210144 C-6.1029455 29.02095471 -6.10109613 27.05980574 -6.09692383 25.09866333 C-6.09156855 22.08534726 -6.09687432 19.07217985 -6.10327148 16.05886841 C-6.10261081 14.15717537 -6.10132987 12.25548242 -6.09936523 10.35379028 C-6.10138947 9.44652695 -6.1034137 8.53926361 -6.10549927 7.60450745 C-6.07688279 0.03005411 -6.07688279 0.03005411 0 0 Z " fill="#FEFEFE" transform="translate(674.966552734375,848.8610534667969)"/>
<path d="M0 0 C4.0444861 1.93103769 4.9893178 5.39787384 6.69921875 9.38671875 C7.07288574 10.22082275 7.44655273 11.05492676 7.83154297 11.91430664 C8.6380054 13.71529521 9.43754417 15.51939643 10.23095703 17.32617188 C11.56148946 20.31086604 12.94875991 23.26348048 14.3515625 26.21484375 C15.28023948 28.18866493 16.20863104 30.16262043 17.13671875 32.13671875 C17.58684326 33.07733154 18.03696777 34.01794434 18.50073242 34.98706055 C18.90912354 35.87047119 19.31751465 36.75388184 19.73828125 37.6640625 C20.10518066 38.44386475 20.47208008 39.22366699 20.85009766 40.02709961 C21.60724905 42.51284718 21.37176933 43.782346 20.51171875 46.19921875 C18.19921875 46.44921875 18.19921875 46.44921875 15.51171875 46.19921875 C12.03880251 42.98355556 11.89763821 40.04993687 10.51171875 35.19921875 C2.92171875 35.52921875 -4.66828125 35.85921875 -12.48828125 36.19921875 C-14.13828125 39.49921875 -15.78828125 42.79921875 -17.48828125 46.19921875 C-19.79828125 46.19921875 -22.10828125 46.19921875 -24.48828125 46.19921875 C-23.88744711 42.51360916 -22.85159518 39.5477288 -21.1953125 36.20703125 C-20.73261963 35.26118164 -20.26992676 34.31533203 -19.79321289 33.34082031 C-19.30071045 32.3453418 -18.80820801 31.34986328 -18.30078125 30.32421875 C-14.38567616 22.3210141 -10.80463651 14.35341591 -7.8046875 5.96484375 C-5.94833863 2.06485859 -4.38113391 0.35076582 0 0 Z M-1.48828125 10.19921875 C-2.66202298 12.63353514 -3.82743888 15.07126057 -4.98828125 17.51171875 C-5.32214844 18.20201172 -5.65601563 18.89230469 -6 19.60351562 C-7.96121602 23.71910647 -7.96121602 23.71910647 -8.48828125 28.19921875 C-3.53828125 28.19921875 1.41171875 28.19921875 6.51171875 28.19921875 C4.54161349 21.99338717 2.26016427 16.10070329 -0.48828125 10.19921875 C-0.81828125 10.19921875 -1.14828125 10.19921875 -1.48828125 10.19921875 Z " fill="#FDFEFD" transform="translate(573.48828125,847.80078125)"/>
<path d="M0 0 C3.12830444 1.16489415 3.89105802 2.5379672 5.32836914 5.47753906 C5.62477295 6.13463867 5.92117676 6.79173828 6.2265625 7.46875 C6.71274048 8.49693848 6.71274048 8.49693848 7.20874023 9.54589844 C8.36167235 12.01054813 9.4806778 14.4893655 10.6015625 16.96875 C11.08093262 18.00580078 11.56030273 19.04285156 12.05419922 20.11132812 C13.60699654 23.47334802 15.1390178 26.84405856 16.6640625 30.21875 C17.16566895 31.31380859 17.66727539 32.40886719 18.18408203 33.53710938 C18.64282715 34.57158203 19.10157227 35.60605469 19.57421875 36.671875 C19.98937744 37.59645508 20.40453613 38.52103516 20.83227539 39.47363281 C21.65880559 42.15441307 21.57388706 43.37941978 20.6015625 45.96875 C18.9515625 45.96875 17.3015625 45.96875 15.6015625 45.96875 C13.9515625 42.66875 12.3015625 39.36875 10.6015625 35.96875 C3.0115625 35.96875 -4.5784375 35.96875 -12.3984375 35.96875 C-13.7184375 38.93875 -15.0384375 41.90875 -16.3984375 44.96875 C-20.1484375 46.03125 -20.1484375 46.03125 -23.3984375 45.96875 C-22.82486858 41.40202847 -21.59959344 37.79693654 -19.6328125 33.64453125 C-19.07207031 32.45021484 -18.51132812 31.25589844 -17.93359375 30.02539062 C-17.33879352 28.7772237 -16.74374025 27.52917733 -16.1484375 26.28125 C-15.28075075 24.44426645 -14.41515057 22.60630977 -13.54968262 20.76828003 C-12.7050143 18.97759889 -11.8554641 17.1892232 -11.00585938 15.40087891 C-9.07998866 11.28880561 -7.24972689 7.13824461 -5.45019531 2.96948242 C-3.99698488 0.20507678 -3.08826253 -0.04023795 0 0 Z M-1.3984375 9.96875 C-2.56956696 12.59184099 -3.73549714 15.21703142 -4.8984375 17.84375 C-5.23230469 18.59011719 -5.56617188 19.33648438 -5.91015625 20.10546875 C-6.22597656 20.82089844 -6.54179687 21.53632812 -6.8671875 22.2734375 C-7.30708008 23.2631958 -7.30708008 23.2631958 -7.75585938 24.27294922 C-8.51655005 25.97821207 -8.51655005 25.97821207 -8.3984375 27.96875 C-3.4484375 27.96875 1.5015625 27.96875 6.6015625 27.96875 C5.69945692 23.45822211 4.49086762 20.26749909 2.5390625 16.15625 C1.99121094 14.99480469 1.44335938 13.83335937 0.87890625 12.63671875 C0.24662109 11.31607422 0.24662109 11.31607422 -0.3984375 9.96875 C-0.7284375 9.96875 -1.0584375 9.96875 -1.3984375 9.96875 Z " fill="#FEFEFD" transform="translate(454.3984375,848.03125)"/>
<path d="M0 0 C1.51815699 0.00015911 3.0363194 0.00585313 4.55444336 0.01586914 C5.35208603 0.01728409 6.1497287 0.01869904 6.97154236 0.02015686 C9.52916146 0.02577223 12.08669429 0.03832727 14.64428711 0.05102539 C16.37410356 0.05603841 18.10392137 0.06060166 19.83374023 0.06469727 C24.08312264 0.07574664 28.33244023 0.09302153 32.58178711 0.11352539 C32.58178711 2.42352539 32.58178711 4.73352539 32.58178711 7.11352539 C27.96178711 7.44352539 23.34178711 7.77352539 18.58178711 8.11352539 C18.25178711 20.32352539 17.92178711 32.53352539 17.58178711 45.11352539 C15.60178711 45.11352539 13.62178711 45.11352539 11.58178711 45.11352539 C10.58178711 44.11352539 10.58178711 44.11352539 10.46826172 40.60351562 C10.46842085 39.04304117 10.47411569 37.48256146 10.48413086 35.92211914 C10.48554581 35.10228043 10.48696075 34.28244171 10.48841858 33.4377594 C10.49403422 30.80881157 10.50658932 28.17994766 10.51928711 25.55102539 C10.5243001 23.77303183 10.52886335 21.99503693 10.53295898 20.21704102 C10.54400872 15.84916994 10.5612838 11.48136191 10.58178711 7.11352539 C5.96178711 7.11352539 1.34178711 7.11352539 -3.41821289 7.11352539 C-3.74821289 5.13352539 -4.07821289 3.15352539 -4.41821289 1.11352539 C-3.41821289 0.11352539 -3.41821289 0.11352539 0 0 Z " fill="#FDFDFD" transform="translate(896.418212890625,848.886474609375)"/>
<path d="M0 0 C1.18807251 0.17619873 1.18807251 0.17619873 2.40014648 0.35595703 C5.36129394 0.86840669 7.77046735 1.35098586 10.25390625 3.09375 C11.80008488 5.56763581 11.43905386 7.85169204 11.25 10.6875 C7.61286987 11.89987671 6.15273029 11.32302691 2.5 10.3125 C-6.39663877 7.87162731 -14.76000776 7.53229432 -23.9375 7.5625 C-25.6709668 7.55669922 -25.6709668 7.55669922 -27.43945312 7.55078125 C-34.14860561 7.55831539 -40.68194108 7.87649695 -47.34204102 8.71118164 C-49.75 8.6875 -49.75 8.6875 -52.5 6.25 C-52.9125 5.404375 -53.325 4.55875 -53.75 3.6875 C-43.52071152 -6.54178848 -12.91815293 -1.94241022 0 0 Z " fill="#7A9B6F" transform="translate(603.75,422.3125)"/>
<path d="M0 0 C3 1 3 1 4 3 C4.12121866 5.26260026 4.17753886 7.52875886 4.20532227 9.79443359 C4.21522186 10.49411758 4.22512146 11.19380157 4.23532104 11.91468811 C4.26704385 14.2425698 4.29177887 16.57047076 4.31640625 18.8984375 C4.33700946 20.52918992 4.35800674 22.15993741 4.37937927 23.79067993 C4.42342028 27.22565918 4.46430195 30.66065606 4.50268555 34.09570312 C4.55123531 38.43940238 4.60492236 42.78301625 4.66063881 47.12662888 C4.78401677 56.7533318 4.89198569 66.38010781 4.98142242 76.00718689 C4.99845194 77.83393937 5.01636328 79.66068358 5.03436279 81.48742676 C5.059455 84.27548628 5.07703883 87.06342346 5.08984375 89.8515625 C5.09994225 90.94723038 5.09994225 90.94723038 5.11024475 92.06503296 C5.11716003 97.11454927 4.61982415 101.99671828 4 107 C-1.61 107 -7.22 107 -13 107 C-13 73.67 -13 40.34 -13 6 C-22.50278256 10.49031822 -22.50278256 10.49031822 -30.5625 16.1875 C-31.34753906 16.84105469 -32.13257813 17.49460937 -32.94140625 18.16796875 C-34.98216115 19.93284098 -34.98216115 19.93284098 -36.65234375 21.73828125 C-38 23 -38 23 -40 23 C-36.51861827 15.26928469 -29.59205056 10.46249104 -22.6875 5.9375 C-22.07680664 5.53120361 -21.46611328 5.12490723 -20.83691406 4.70629883 C-19.07421875 3.58984375 -19.07421875 3.58984375 -16 2 C-13 3 -13 3 -12 5 C-11.88031017 6.76908699 -11.82273102 8.54252037 -11.79467773 10.31542969 C-11.77473755 11.43513153 -11.75479736 12.55483337 -11.73425293 13.70846558 C-11.7175354 14.93389069 -11.70081787 16.1593158 -11.68359375 17.421875 C-11.66276733 18.69410919 -11.64194092 19.96634338 -11.6204834 21.27713013 C-11.56462001 24.72278503 -11.51528805 28.16850445 -11.46757126 31.6142807 C-11.43761145 33.74208469 -11.40579051 35.86985254 -11.37332153 37.99761963 C-11.03327812 60.33245029 -10.87195098 82.66256056 -11 105 C-6.38 105 -1.76 105 3 105 C2.67 71.01 2.34 37.02 2 2 C1.34 2 0.68 2 0 2 C0 1.34 0 0.68 0 0 Z " fill="#8CA87E" transform="translate(528,454)"/>
<path d="M0 0 C14.7317861 0.01913426 28.45282216 2.35255141 42.63061523 6.19042969 C43.75561523 12.94042969 43.75561523 12.94042969 42.63061523 15.19042969 C39.83203579 14.67629672 37.12427442 14.04984708 34.38061523 13.28808594 C25.49381781 10.83495957 16.93691444 9.52416348 7.72631836 8.9621582 C2.9639658 8.62592311 -0.5071457 8.28635148 -4.36938477 5.19042969 C-5.68188477 3.00292969 -5.68188477 3.00292969 -6.36938477 1.19042969 C-4.61931588 -0.55963919 -2.33310944 0.02519024 0 0 Z " fill="#7B9C6F" transform="translate(571.369384765625,440.8095703125)"/>
<path d="M0 0 C1.58669495 -0.00472824 1.58669495 -0.00472824 3.20544434 -0.009552 C4.93196228 -0.00651566 4.93196228 -0.00651566 6.69335938 -0.00341797 C8.45226501 -0.00485306 8.45226501 -0.00485306 10.2467041 -0.00631714 C12.73169 -0.00699917 15.21667766 -0.00514331 17.70166016 -0.00097656 C21.52054825 0.00437134 25.33931872 -0.00092083 29.15820312 -0.00732422 C31.56575547 -0.00666344 33.97330774 -0.00538229 36.38085938 -0.00341797 C38.10737732 -0.00645432 38.10737732 -0.00645432 39.86877441 -0.009552 C40.92657104 -0.00639984 41.98436768 -0.00324768 43.07421875 0 C44.47867249 0.00119339 44.47867249 0.00119339 45.91149902 0.00241089 C48.03710938 0.12939453 48.03710938 0.12939453 49.03710938 1.12939453 C49.03710938 5.08939453 49.03710938 9.04939453 49.03710938 13.12939453 C35.50710938 13.12939453 21.97710937 13.12939453 8.03710938 13.12939453 C8.03710938 12.79939453 8.03710938 12.46939453 8.03710938 12.12939453 C21.23710937 12.12939453 34.43710937 12.12939453 48.03710938 12.12939453 C48.03710938 8.82939453 48.03710938 5.52939453 48.03710938 2.12939453 C30.54710937 2.12939453 13.05710937 2.12939453 -4.96289062 2.12939453 C-4.63709595 15.81294638 -4.63709595 15.81294638 -4.3046875 29.49633789 C-3.9774165 43.7202888 -3.96289062 57.89184263 -3.96289062 72.12939453 C13.19710938 72.12939453 30.35710937 72.12939453 48.03710938 72.12939453 C48.03710938 68.82939453 48.03710938 65.52939453 48.03710938 62.12939453 C47.37710938 62.12939453 46.71710938 62.12939453 46.03710938 62.12939453 C46.03710938 61.46939453 46.03710938 60.80939453 46.03710938 60.12939453 C47.02710938 60.45939453 48.01710938 60.78939453 49.03710938 61.12939453 C49.0639749 63.10848851 49.08344313 65.08768424 49.09960938 67.06689453 C49.11121094 68.16904297 49.1228125 69.27119141 49.13476562 70.40673828 C49.03710938 73.12939453 49.03710938 73.12939453 48.03710938 74.12939453 C46.38519542 74.22807962 44.7290772 74.2573829 43.07421875 74.25878906 C42.01642212 74.26194122 40.95862549 74.26509338 39.86877441 74.26834106 C38.71776245 74.26631683 37.56675049 74.2642926 36.38085938 74.26220703 C34.62195374 74.26364212 34.62195374 74.26364212 32.82751465 74.2651062 C30.34252875 74.26578823 27.85754109 74.26393237 25.37255859 74.25976562 C21.5536705 74.25441772 17.73490003 74.25970989 13.91601562 74.26611328 C11.50846328 74.2654525 9.10091101 74.26417135 6.69335938 74.26220703 C4.96684143 74.26524338 4.96684143 74.26524338 3.20544434 74.26834106 C2.14764771 74.2651889 1.08985107 74.26203674 0 74.25878906 C-1.40445374 74.25759567 -1.40445374 74.25759567 -2.83728027 74.25637817 C-4.96289062 74.12939453 -4.96289062 74.12939453 -5.96289062 73.12939453 C-6.06252982 70.89552247 -6.09088857 68.65845594 -6.09228516 66.42236328 C-6.09403748 65.72156647 -6.09578979 65.02076965 -6.09759521 64.29873657 C-6.10201328 61.97143105 -6.09907591 59.64420089 -6.09570312 57.31689453 C-6.09637618 55.70646144 -6.09734621 54.09602845 -6.09860229 52.4855957 C-6.10007921 49.10610998 -6.09792493 45.72665063 -6.09326172 42.34716797 C-6.08756443 38.00562948 -6.09084347 33.6641528 -6.09683418 29.32261658 C-6.10043998 25.99588552 -6.09930112 22.66916923 -6.09670639 19.34243774 C-6.09603717 17.74118035 -6.09686536 16.13992163 -6.09918594 14.53866577 C-6.10171278 12.30454942 -6.09787147 10.07053453 -6.09228516 7.83642578 C-6.09148956 6.56259033 -6.09069397 5.28875488 -6.08987427 3.97631836 C-5.87965904 -0.73662519 -4.25303434 0.00361388 0 0 Z " fill="#82A476" transform="translate(304.962890625,738.87060546875)"/>
<path d="M0 0 C3.07172367 1.45964969 4.89008701 2.7414354 7.0625 5.375 C9.26506533 7.98934928 11.495729 10.55613546 13.828125 13.0546875 C14.32046631 13.58271973 14.81280762 14.11075195 15.32006836 14.65478516 C16.29950963 15.70168018 17.28200243 16.7457303 18.26782227 17.78662109 C20.69829978 20.3976927 22.49783208 22.77805838 24 26 C18.59791222 21.54626313 13.80342864 16.7706988 9.0625 11.625 C8.37865234 10.88894531 7.69480469 10.15289062 6.99023438 9.39453125 C5.32339748 7.59947613 3.66009342 5.8012894 2 4 C0.31063906 15.40640056 0.31063906 15.40640056 3.26123047 26.19238281 C6.49850531 30.15723443 10.35397782 33.39321059 14.32519531 36.60009766 C16.43578695 38.36425691 18.18701896 40.31998262 19.9375 42.4375 C22.53241201 45.50066681 25.29128672 48.31409936 28.15576172 51.12451172 C29.94543859 52.94451406 31.6201162 54.81982832 33.28515625 56.75390625 C36.74762159 60.73542155 40.31629058 64.60050887 43.9375 68.4375 C44.58009766 69.12070312 45.22269531 69.80390625 45.88476562 70.5078125 C47.9218755 72.6731045 49.96087037 74.83661015 52 77 C53.33476688 78.417845 54.66940312 79.835813 56.00390625 81.25390625 C58.00672422 83.38209931 60.00962052 85.51021794 62.01293945 87.63793945 C69.02032882 95.08100379 76.01413943 102.53672877 83 110 C83.60618164 110.64743164 84.21236328 111.29486328 84.83691406 111.96191406 C88.34891248 115.71417747 91.85539985 119.47146952 95.35546875 123.23486328 C96.98309993 124.98186053 98.61639958 126.72342968 100.25 128.46484375 C101.2502833 129.53879871 102.25029796 130.61300395 103.25 131.6875 C104.12140625 132.61949219 104.9928125 133.55148437 105.890625 134.51171875 C107.72497776 136.67557561 108.8087303 138.46905439 110 141 C104.869723 136.75107828 100.26160351 132.27001585 95.75 127.375 C95.09378662 126.66915771 94.43757324 125.96331543 93.76147461 125.23608398 C89.12329319 120.24003043 84.52330947 115.20922326 79.92578125 110.17578125 C74.35899707 104.1105372 68.68189385 98.14698436 63.03320312 92.15820312 C59.2318256 88.1231194 55.44384202 84.07548846 51.65429688 80.02929688 C48.40504337 76.56137647 45.15139792 73.09771915 41.890625 69.640625 C35.1889946 62.53512987 28.52071211 55.40684757 21.9375 48.19140625 C18.16159682 44.07260588 14.32942137 40.00647409 10.5 35.9375 C9.80455078 35.19822266 9.10910156 34.45894531 8.39257812 33.69726562 C5.00603518 29.99915489 5.00603518 29.99915489 1.30541992 26.63574219 C-0.6304032 24.21008015 -0.33961866 22.30162559 -0.29296875 19.23828125 C-0.28330078 18.12001953 -0.27363281 17.00175781 -0.26367188 15.84960938 C-0.23853516 14.68236328 -0.21339844 13.51511719 -0.1875 12.3125 C-0.17396484 11.13365234 -0.16042969 9.95480469 -0.14648438 8.74023438 C-0.11109326 5.82636589 -0.06171809 2.91341055 0 0 Z " fill="#8EAE81" transform="translate(515,399)"/>
<path d="M0 0 C1.08152344 0.01417969 2.16304688 0.02835938 3.27734375 0.04296875 C4.90349609 0.05263672 4.90349609 0.05263672 6.5625 0.0625 C9.21484375 0.23046875 9.21484375 0.23046875 10.21484375 1.23046875 C10.31448295 3.46434081 10.3428417 5.70140734 10.34423828 7.9375 C10.3459906 8.63829681 10.34774292 9.33909363 10.34954834 10.06112671 C10.35396641 12.38843224 10.35102904 14.71566239 10.34765625 17.04296875 C10.3483293 18.65340184 10.34929934 20.26383484 10.35055542 21.87426758 C10.35203233 25.2537533 10.34987806 28.63321265 10.34521484 32.01269531 C10.33951755 36.3542338 10.3427966 40.69571048 10.34878731 45.0372467 C10.35239311 48.36397776 10.35125425 51.69069405 10.34865952 55.01742554 C10.3479903 56.61868293 10.34881849 58.21994165 10.35113907 59.82119751 C10.35366591 62.05531386 10.3498246 64.28932875 10.34423828 66.5234375 C10.34304489 68.43419067 10.34304489 68.43419067 10.34182739 70.38354492 C10.21484375 73.23046875 10.21484375 73.23046875 9.21484375 74.23046875 C7.59344938 74.35541491 5.96600253 74.40618499 4.33984375 74.41796875 C3.45554687 74.43214844 2.57125 74.44632813 1.66015625 74.4609375 C-0.78515625 74.23046875 -0.78515625 74.23046875 -3.78515625 72.23046875 C-3.29015625 71.24046875 -3.29015625 71.24046875 -2.78515625 70.23046875 C-2.45515625 70.56046875 -2.12515625 70.89046875 -1.78515625 71.23046875 C1.51484375 71.56046875 4.81484375 71.89046875 8.21484375 72.23046875 C8.21484375 49.13046875 8.21484375 26.03046875 8.21484375 2.23046875 C4.58484375 2.23046875 0.95484375 2.23046875 -2.78515625 2.23046875 C-2.78515625 17.41046875 -2.78515625 32.59046875 -2.78515625 48.23046875 C-3.11515625 48.23046875 -3.44515625 48.23046875 -3.78515625 48.23046875 C-3.97845929 41.7163283 -4.15593637 35.20189639 -4.32226562 28.68701172 C-4.38076755 26.46946387 -4.44293066 24.25200953 -4.50878906 22.03466797 C-4.60266885 18.85271222 -4.68349951 15.6706556 -4.76171875 12.48828125 C-4.7939151 11.49240997 -4.82611145 10.4965387 -4.85928345 9.4704895 C-4.87945526 8.54968597 -4.89962708 7.62888245 -4.92041016 6.68017578 C-4.94261627 5.86743195 -4.96482239 5.05468811 -4.98770142 4.21731567 C-4.63904838 0.79723799 -3.25612284 0.26944074 0 0 Z " fill="#81A175" transform="translate(265.78515625,738.76953125)"/>
<path d="M0 0 C1.32 0 2.64 0 4 0 C6.0078125 2.16796875 6.0078125 2.16796875 8.125 5.1875 C8.92352827 6.3014635 9.72304081 7.41472197 10.5234375 8.52734375 C10.93303711 9.10468262 11.34263672 9.68202148 11.76464844 10.27685547 C13.702027 12.97923055 15.72405732 15.61363485 17.75 18.25 C18.15234863 18.77480957 18.55469727 19.29961914 18.96923828 19.84033203 C23.0992812 25.19456366 27.38829831 30.41980699 31.70996094 35.62011719 C32.23879883 36.26239258 32.76763672 36.90466797 33.3125 37.56640625 C33.78300781 38.13302979 34.25351562 38.69965332 34.73828125 39.28344727 C36.07743097 41.10534388 37.04638564 42.95370251 38 45 C34.01013355 43.67004452 32.44435844 41.04994952 30 37.8125 C29.01192774 36.52848499 28.02364051 35.24463537 27.03515625 33.9609375 C26.53129395 33.3019043 26.02743164 32.64287109 25.50830078 31.96386719 C23.18006248 28.93240897 20.80745018 25.93637871 18.4375 22.9375 C13.23435103 16.33574458 8.11925362 9.66686215 3 3 C2.98969254 3.57407089 2.97938507 4.14814178 2.96876526 4.73960876 C2.86092566 10.69265662 2.74631023 16.64554615 2.62768555 22.59838867 C2.58426412 24.82263896 2.54259455 27.04692415 2.50268555 29.27124023 C2.44515694 32.46088195 2.38141316 35.6503468 2.31640625 38.83984375 C2.29133751 40.34139259 2.29133751 40.34139259 2.26576233 41.87327576 C2.24581711 42.79415482 2.22587189 43.71503387 2.20532227 44.66381836 C2.18977798 45.47878281 2.1742337 46.29374725 2.15821838 47.13340759 C2 49 2 49 1 50 C-1.01964199 50.07244053 -3.04167124 50.08377188 -5.0625 50.0625 C-6.71958984 50.04896484 -6.71958984 50.04896484 -8.41015625 50.03515625 C-9.26480469 50.02355469 -10.11945313 50.01195312 -11 50 C-11.33 49.34 -11.66 48.68 -12 48 C-8.04 48 -4.08 48 0 48 C0 32.16 0 16.32 0 0 Z " fill="#81A174" transform="translate(224,763)"/>
<path d="M0 0 C1.48831242 0.00667405 2.97660807 0.01863442 4.46484375 0.03515625 C5.22345703 0.03966797 5.98207031 0.04417969 6.76367188 0.04882812 C8.64326246 0.06064945 10.52281274 0.07858547 12.40234375 0.09765625 C13.61731139 4.84642423 13.54311631 9.46975018 13.53173828 14.33496094 C13.5334906 15.25757721 13.53524292 16.18019348 13.53704834 17.13076782 C13.54144476 20.17704151 13.53853564 23.22325698 13.53515625 26.26953125 C13.53583015 28.39316824 13.5368009 30.51680516 13.53805542 32.64044189 C13.53952959 37.09233331 13.53738767 41.54420466 13.53271484 45.99609375 C13.52703163 51.68641137 13.53028941 57.37668167 13.53628731 63.06699753 C13.53991234 67.45432894 13.53874518 71.84164926 13.53615952 76.22898102 C13.5354949 78.32602189 13.53630234 80.42306378 13.53863907 82.52010345 C13.54119595 85.46102028 13.53728182 88.40186215 13.53173828 91.34277344 C13.53376251 92.20023163 13.53578674 93.05768982 13.53787231 93.94113159 C13.51894221 99.39834389 13.0870722 104.68244358 12.40234375 110.09765625 C12.07234375 110.09765625 11.74234375 110.09765625 11.40234375 110.09765625 C11.40234375 74.45765625 11.40234375 38.81765625 11.40234375 2.09765625 C4.96734375 2.59265625 4.96734375 2.59265625 -1.59765625 3.09765625 C-2.25765625 4.41765625 -2.91765625 5.73765625 -3.59765625 7.09765625 C-3.92765625 7.09765625 -4.25765625 7.09765625 -4.59765625 7.09765625 C-4.64019981 5.09810879 -4.63846408 3.09723989 -4.59765625 1.09765625 C-3.59765625 0.09765625 -3.59765625 0.09765625 0 0 Z " fill="#8CA77F" transform="translate(625.59765625,391.90234375)"/>
<path d="M0 0 C1.18807251 0.17619873 1.18807251 0.17619873 2.40014648 0.35595703 C5.36129394 0.86840669 7.77046735 1.35098586 10.25390625 3.09375 C11.80008488 5.56763581 11.43905386 7.85169204 11.25 10.6875 C10.26 11.0175 9.27 11.3475 8.25 11.6875 C8.58 9.0475 8.91 6.4075 9.25 3.6875 C-20.98804943 -0.70582577 -20.98804943 -0.70582577 -50.75 4.6875 C-50.09 5.3475 -49.43 6.0075 -48.75 6.6875 C-46.11516384 6.50101616 -43.6047386 6.20620327 -41 5.8125 C-30.24936208 4.38587506 -19.89946787 4.29534723 -9.125 5.5625 C-8.44945068 5.64081055 -7.77390137 5.71912109 -7.07788086 5.79980469 C-3.56304482 6.26412062 -0.85654422 7.01840071 2.25 8.6875 C1.46890869 8.6167627 0.68781738 8.54602539 -0.11694336 8.47314453 C-8.19923623 7.78966015 -16.20359796 7.53461839 -24.3125 7.5625 C-25.44107422 7.55863281 -26.56964844 7.55476563 -27.73242188 7.55078125 C-34.33883983 7.5583792 -40.77047427 7.89214008 -47.32885742 8.71118164 C-49.75 8.6875 -49.75 8.6875 -52.5 6.25 C-52.9125 5.404375 -53.325 4.55875 -53.75 3.6875 C-43.52071152 -6.54178848 -12.91815293 -1.94241022 0 0 Z " fill="#89A97F" transform="translate(603.75,422.3125)"/>
<path d="M0 0 C5.67260308 0.55707 8.14605023 2.58089879 11.66992188 6.76367188 C13.90056384 9.6308823 16.05965413 12.53969484 18.16650391 15.49902344 C19.9656378 18.01376789 21.84705614 20.45427764 23.74804688 22.89233398 C24.97258423 24.46479469 26.17987509 26.0506378 27.38671875 27.63671875 C30.27597812 31.38932217 33.26847379 35.05182804 36.2890625 38.69921875 C37.6875 40.625 37.6875 40.625 37.6875 42.625 C37.0275 42.625 36.3675 42.625 35.6875 42.625 C34.53125 41.33203125 34.53125 41.33203125 33.1875 39.4375 C26.28007062 29.92727114 19.00644817 20.70514689 11.62255859 11.56225586 C9.53380838 8.9695764 7.53567629 6.39726443 5.6875 3.625 C3.5163443 3.22353921 3.5163443 3.22353921 1.125 3.375 C0.31933594 3.39046875 -0.48632812 3.4059375 -1.31640625 3.421875 C-3.31053449 3.41240535 -3.31053449 3.41240535 -4.3125 4.625 C-4.43625169 6.64914991 -4.49047311 8.67757737 -4.51782227 10.70532227 C-4.53776749 12.00659561 -4.55771271 13.30786896 -4.57826233 14.64857483 C-4.59524799 16.0795174 -4.61212675 17.51046125 -4.62890625 18.94140625 C-4.64946906 20.3972992 -4.67046534 21.85318609 -4.69187927 23.30906677 C-4.74716961 27.14772647 -4.79654802 30.98644065 -4.84472656 34.82519531 C-4.89489091 38.73963288 -4.95060336 42.65399096 -5.00585938 46.56835938 C-5.11352603 54.25383901 -5.21495193 61.93938457 -5.3125 69.625 C-5.6425 69.625 -5.9725 69.625 -6.3125 69.625 C-6.48933847 60.92402254 -6.65530229 52.22292621 -6.80727577 43.52147865 C-6.87818261 39.48131577 -6.95287419 35.44129591 -7.03613281 31.40136719 C-7.11630139 27.50468459 -7.18663594 23.6079386 -7.25007248 19.71094894 C-7.27605297 18.22209477 -7.30561352 16.73329873 -7.33876419 15.24458694 C-7.38449298 13.16391067 -7.41763838 11.08339387 -7.44775391 9.00244141 C-7.46996002 7.81663483 -7.49216614 6.63082825 -7.51504517 5.40908813 C-7.15059576 0.39954241 -4.47281246 0.13033361 0 0 Z " fill="#81A174" transform="translate(218.3125,738.375)"/>
<path d="M0 0 C14.7317861 0.01913426 28.45282216 2.35255141 42.63061523 6.19042969 C43.75561523 12.94042969 43.75561523 12.94042969 42.63061523 15.19042969 C37.78373331 14.40867454 33.25397853 12.79198691 28.63061523 11.19042969 C32.18304406 10.00628675 33.32892086 10.49507437 36.81811523 11.62792969 C37.71916992 11.91539062 38.62022461 12.20285156 39.54858398 12.49902344 C40.2356543 12.7271875 40.92272461 12.95535156 41.63061523 13.19042969 C41.13561523 10.71542969 41.13561523 10.71542969 40.63061523 8.19042969 C38.27778149 7.53938817 35.92353075 6.89450847 33.56811523 6.25292969 C32.91133789 6.07052734 32.25456055 5.888125 31.57788086 5.70019531 C23.66180336 3.55544525 15.8593175 2.96842069 7.69311523 2.62792969 C6.7230957 2.58474609 5.75307617 2.5415625 4.75366211 2.49707031 C2.37942923 2.39180876 0.00510602 2.28967262 -2.36938477 2.19042969 C-2.36938477 3.18042969 -2.36938477 4.17042969 -2.36938477 5.19042969 C0.93061523 5.52042969 4.23061523 5.85042969 7.63061523 6.19042969 C7.63061523 6.52042969 7.63061523 6.85042969 7.63061523 7.19042969 C4.23022539 7.54085154 1.01602213 7.73167029 -2.36938477 7.19042969 C-4.99438477 4.19042969 -4.99438477 4.19042969 -6.36938477 1.19042969 C-4.61931588 -0.55963919 -2.33310944 0.02519024 0 0 Z " fill="#89A87F" transform="translate(571.369384765625,440.8095703125)"/>
<path d="M0 0 C3 1 3 1 4 3 C4.08543895 5.10528933 4.10714725 7.21331157 4.09765625 9.3203125 C4.09443359 10.57714844 4.09121094 11.83398438 4.08789062 13.12890625 C4.07951172 14.44761719 4.07113281 15.76632812 4.0625 17.125 C4.05748489 18.46484211 4.05292201 19.804686 4.04882812 21.14453125 C4.03701086 24.42973206 4.02053617 27.71484397 4 31 C3.67 31 3.34 31 3 31 C3 22.09 3 13.18 3 4 C-6.50278256 8.49031822 -6.50278256 8.49031822 -14.5625 14.1875 C-15.34753906 14.84105469 -16.13257813 15.49460937 -16.94140625 16.16796875 C-18.98216115 17.93284098 -18.98216115 17.93284098 -20.65234375 19.73828125 C-22 21 -22 21 -24 21 C-20.51861827 13.26928469 -13.59205056 8.46249104 -6.6875 3.9375 C-6.07680664 3.53120361 -5.46611328 3.12490723 -4.83691406 2.70629883 C-3.07421875 1.58984375 -3.07421875 1.58984375 0 0 Z " fill="#8DAB7D" transform="translate(512,456)"/>
<path d="M0 0 C2.90723254 2.50535039 4.22777981 5.19087069 5.75 8.6875 C6.19859375 9.68136719 6.6471875 10.67523437 7.109375 11.69921875 C9.16784664 19.32820356 6.23291164 25.58604404 3.0625 32.4375 C2.52206055 33.65856445 2.52206055 33.65856445 1.97070312 34.90429688 C-0.72840296 40.86420148 -0.72840296 40.86420148 -3 42 C-1.63239055 37.66923675 -0.21565795 33.43510791 1.60546875 29.2734375 C1.88567871 28.62060791 2.16588867 27.96777832 2.45458984 27.29516602 C3.01854965 25.99183147 3.59794067 24.69504677 4.19384766 23.40600586 C5.60739737 20.10497196 6.0664613 18.29534408 5.26953125 14.75390625 C3.90796632 11.80035771 2.50918179 8.88116523 1 6 C-1.645313 8.3155856 -2.73645842 10.40396574 -3.9375 13.6875 C-5.69138801 18.29907426 -7.72955017 22.62127532 -10 27 C-11.26077089 23.21768733 -10.53364229 22.29003929 -8.9453125 18.7109375 C-8.49542969 17.68742188 -8.04554688 16.66390625 -7.58203125 15.609375 C-6.86080078 14.00835938 -6.86080078 14.00835938 -6.125 12.375 C-5.65191406 11.29992187 -5.17882812 10.22484375 -4.69140625 9.1171875 C-1.16884566 1.16884566 -1.16884566 1.16884566 0 0 Z " fill="#89AA7E" transform="translate(692,536)"/>
<path d="M0 0 C3.13025111 1.56512556 3.32009613 4.06433439 4.5 7.3125 C4.7477417 7.99022461 4.9954834 8.66794922 5.25073242 9.36621094 C6.17571233 11.90778039 7.08760272 14.45388613 8 17 C8.86064304 19.38412687 9.72132268 21.76824053 10.58203125 24.15234375 C11.49350255 26.68442436 12.40323608 29.217126 13.3125 31.75 C13.75722656 32.98790283 14.20195312 34.22580566 14.66015625 35.5012207 C15.0778125 36.67128662 15.49546875 37.84135254 15.92578125 39.046875 C16.30130127 40.09713867 16.67682129 41.14740234 17.0637207 42.22949219 C17.82415682 44.47966925 18.47363451 46.68635129 19 49 C20.79240663 48.88610125 22.58394835 48.75852313 24.375 48.625 C25.37273437 48.55539062 26.37046875 48.48578125 27.3984375 48.4140625 C30.15508879 48.23636036 30.15508879 48.23636036 32 46 C31.67 47.65 31.34 49.3 31 51 C26.71 51 22.42 51 18 51 C13.79970572 40.42041919 9.76152869 29.78179801 5.8175354 19.10430908 C5.31430976 17.74345809 4.80940671 16.3832262 4.30282593 15.02362061 C3.58370448 13.09173428 2.87108364 11.15757055 2.16015625 9.22265625 C1.74386963 8.09609619 1.32758301 6.96953613 0.89868164 5.80883789 C0 3 0 3 0 0 Z " fill="#87A97A" transform="translate(421,762)"/>
<path d="M0 0 C1.18851562 0.00902344 2.37703125 0.01804687 3.6015625 0.02734375 C4.51679688 0.03894531 5.43203125 0.05054688 6.375 0.0625 C7.82720829 2.96691659 6.80211341 4.42785318 5.79296875 7.47265625 C5.43783203 8.54451172 5.08269531 9.61636719 4.71679688 10.72070312 C4.33587891 11.84412109 3.95496094 12.96753906 3.5625 14.125 C3.00852539 15.81592773 3.00852539 15.81592773 2.44335938 17.54101562 C2.08435547 18.61158203 1.72535156 19.68214844 1.35546875 20.78515625 C0.85889771 22.26640991 0.85889771 22.26640991 0.35229492 23.77758789 C-0.625 26.0625 -0.625 26.0625 -2.625 27.0625 C-0.37368611 18.70534994 1.98285814 10.38035366 4.375 2.0625 C0.745 2.3925 -2.885 2.7225 -6.625 3.0625 C-7.615 5.7025 -8.605 8.3425 -9.625 11.0625 C-10.72859366 6.64812534 -10.35002467 5.14808475 -8.625 1.0625 C-5.74084117 -0.37957941 -3.20778472 -0.03144887 0 0 Z " fill="#8BAD7E" transform="translate(469.625,738.9375)"/>
<path d="M0 0 C1.28132812 0.00902344 2.56265625 0.01804687 3.8828125 0.02734375 C4.87023437 0.03894531 5.85765625 0.05054688 6.875 0.0625 C8.00364571 2.88753443 7.86992545 4.07883704 6.94921875 7.04296875 C6.49160156 8.10128906 6.03398438 9.15960937 5.5625 10.25 C5.11261719 11.31605469 4.66273438 12.38210938 4.19921875 13.48046875 C2.875 16.0625 2.875 16.0625 0.875 17.0625 C1.07996094 16.39863281 1.28492188 15.73476563 1.49609375 15.05078125 C1.76550781 14.16777344 2.03492188 13.28476562 2.3125 12.375 C2.57933594 11.50488281 2.84617187 10.63476562 3.12109375 9.73828125 C3.83285055 7.2120978 4.36028572 4.6360714 4.875 2.0625 C0.585 2.0625 -3.705 2.0625 -8.125 2.0625 C-8.57875 3.67125 -9.0325 5.28 -9.5 6.9375 C-10.875 11.8125 -10.875 11.8125 -13.125 14.0625 C-12.53302528 9.20830734 -11.26107512 5.42009324 -9.125 1.0625 C-6.12186252 -0.43906874 -3.33432478 -0.03031204 0 0 Z " fill="#8EAD82" transform="translate(769.125,506.9375)"/>
<path d="M0 0 C0.66 0.33 1.32 0.66 2 1 C1.175 1.598125 0.35 2.19625 -0.5 2.8125 C-1.325 3.534375 -2.15 4.25625 -3 5 C-3 5.99 -3 6.98 -3 8 C-5.1953125 10.015625 -5.1953125 10.015625 -8.125 12.25 C-11.61570401 14.99494228 -14.75133136 17.62039576 -17.5625 21.0625 C-18.7690625 22.5165625 -18.7690625 22.5165625 -20 24 C-20.66 24 -21.32 24 -22 24 C-20.67798228 20.11103983 -19.10745926 17.7394119 -16.19140625 14.86328125 C-15.44439453 14.12142578 -14.69738281 13.37957031 -13.92773438 12.61523438 C-13.14720703 11.85533203 -12.36667969 11.09542969 -11.5625 10.3125 C-10.78583984 9.54099609 -10.00917969 8.76949219 -9.20898438 7.97460938 C-3.46567554 2.31045036 -3.46567554 2.31045036 0 0 Z " fill="#92AD86" transform="translate(512,443)"/>
<path d="M0 0 C1.8871875 -0.00386719 1.8871875 -0.00386719 3.8125 -0.0078125 C7 0.125 7 0.125 9 1.125 C8.67 1.785 8.34 2.445 8 3.125 C3.38 3.125 -1.24 3.125 -6 3.125 C-4.68 7.085 -3.36 11.045 -2 15.125 C-2.66 15.125 -3.32 15.125 -4 15.125 C-4.83764268 13.16850603 -5.66999059 11.20974444 -6.5 9.25 C-6.9640625 8.15945313 -7.428125 7.06890625 -7.90625 5.9453125 C-9 3.125 -9 3.125 -9 1.125 C-6.02760209 -0.36119895 -3.30380422 -0.00677009 0 0 Z " fill="#90AE86" transform="translate(698,506.875)"/>
<path d="M0 0 C2 1 2 1 3 3 C2.25234375 3.53109375 1.5046875 4.0621875 0.734375 4.609375 C-0.74289062 5.66898437 -0.74289062 5.66898437 -2.25 6.75 C-3.22453125 7.44609375 -4.1990625 8.1421875 -5.203125 8.859375 C-8.00896411 10.90438235 -8.00896411 10.90438235 -10.234375 13.265625 C-12 15 -12 15 -14 15 C-12.55053895 11.66026243 -10.71827612 9.47695341 -8.125 6.9375 C-7.44695312 6.26589844 -6.76890625 5.59429687 -6.0703125 4.90234375 C-4.1292063 3.11872353 -2.1380399 1.53881347 0 0 Z " fill="#89A27F" transform="translate(502,462)"/>
<path d="M0 0 C0.66 0.33 1.32 0.66 2 1 C-1.85524776 5.90025997 -5.6362389 9.76150273 -11 13 C-11.99 12.67 -12.98 12.34 -14 12 C-14 11.34 -14 10.68 -14 10 C-12.20703125 8.6328125 -12.20703125 8.6328125 -9.8125 7.125 C-6.37649041 4.91381402 -3.13571327 2.62995307 0 0 Z " fill="#8FA582" transform="translate(793,442)"/>
<path d="M0 0 C1.79244141 0.01740234 1.79244141 0.01740234 3.62109375 0.03515625 C5.41740234 0.04869141 5.41740234 0.04869141 7.25 0.0625 C8.17683594 0.07410156 9.10367187 0.08570313 10.05859375 0.09765625 C10.05859375 1.08765625 10.05859375 2.07765625 10.05859375 3.09765625 C6.09859375 2.76765625 2.13859375 2.43765625 -1.94140625 2.09765625 C-2.27140625 3.08765625 -2.60140625 4.07765625 -2.94140625 5.09765625 C-3.50390625 3.16015625 -3.50390625 3.16015625 -3.94140625 1.09765625 C-2.94140625 0.09765625 -2.94140625 0.09765625 0 0 Z " fill="#82A576" transform="translate(369.94140625,738.90234375)"/>
<path d="M0 0 C-1.98 0.99 -3.96 1.98 -6 3 C-6 3.99 -6 4.98 -6 6 C-7.98 6.33 -9.96 6.66 -12 7 C-10.95724749 3.7558811 -9.38759509 2.39805336 -6.5625 0.6875 C-3 -1 -3 -1 0 0 Z " fill="#93AF85" transform="translate(515,457)"/>
<path d="M0 0 C1.86323318 0.25288812 3.71708432 0.57690153 5.5625 0.9375 C6.57441406 1.13214844 7.58632813 1.32679688 8.62890625 1.52734375 C9.80259766 1.76130859 9.80259766 1.76130859 11 2 C11 2.66 11 3.32 11 4 C9.56344146 4.08131463 8.1255517 4.13933559 6.6875 4.1875 C5.48673828 4.23970703 5.48673828 4.23970703 4.26171875 4.29296875 C1.52148416 3.93801608 0.70828921 3.10633718 -1 1 C-0.67 0.67 -0.34 0.34 0 0 Z " fill="#6E8963" transform="translate(626,498)"/>
<path d="M0 0 C0.66 0.33 1.32 0.66 2 1 C0.02 3.31 -1.96 5.62 -4 8 C-4.66 7.67 -5.32 7.34 -6 7 C-4.60667426 3.63279613 -3.0210714 2.0140476 0 0 Z " fill="#788C6E" transform="translate(793,442)"/>
<path d="M0 0 C0.66 0.33 1.32 0.66 2 1 C-0.97 4.96 -0.97 4.96 -4 9 C-4.66 8.01 -5.32 7.02 -6 6 C-4.02 4.02 -2.04 2.04 0 0 Z " fill="#7E9674" transform="translate(790,454)"/>
<path d="M0 0 C0.66 0.66 1.32 1.32 2 2 C0.38405168 4.04119788 -1.2856382 6.04072937 -3 8 C-3.66 8 -4.32 8 -5 8 C-3.8141763 4.62496331 -2.72426311 2.35277269 0 0 Z " fill="#7F9675" transform="translate(495,459)"/>
<path d="M0 0 C0.99 0 1.98 0 3 0 C4.35439668 2.70879335 4.06501451 5.00933268 4 8 C3.01 8.33 2.02 8.66 1 9 C1.33 6.36 1.66 3.72 2 1 C1.34 0.67 0.68 0.34 0 0 Z " fill="#92AD87" transform="translate(611,425)"/>
</svg>
